<?xml version="1.0" encoding="utf-8"?>
<!-- Generator: Adobe Illustrator 17.1.0, SVG Export Plug-In . SVG Version: 6.00 Build 0)  -->
<!DOCTYPE svg PUBLIC "-//W3C//DTD SVG 1.1//EN" "http://www.w3.org/Graphics/SVG/1.1/DTD/svg11.dtd">
<svg version="1.1" id="Layer_1" xmlns="http://www.w3.org/2000/svg" xmlns:xlink="http://www.w3.org/1999/xlink" x="0px" y="0px"
	 viewBox="0 0 512 512" enable-background="new 0 0 512 512" xml:space="preserve">
<path d="M352.2,435.8L179.9,256.9L350.6,79.6l1.5-1.6l-0.2-0.2c0.7-1.3,1.1-2.8,1.1-4.3c0-4.8-3.9-8.8-8.8-8.8c-1.8,0-3.5,0.6-5,1.6
	l-0.2-0.1L161.4,250.8l-1.6,1.7l0.2,0.2c-0.7,1.3-1.1,2.7-1.1,4.2s0.4,2.9,1.1,4.2l-0.3,0.2l178.2,185l1.2,1.2l0.1-0.1
	c1.5,1,3.2,1.6,5,1.6c4.8,0,8.8-3.9,8.8-8.8c0-1.5-0.4-2.9-1.1-4.2L352.2,435.8z"/>
</svg>
