<?xml version="1.0" encoding="utf-8"?>
<!-- Generator: Adobe Illustrator 17.1.0, SVG Export Plug-In . SVG Version: 6.00 Build 0)  -->
<!DOCTYPE svg PUBLIC "-//W3C//DTD SVG 1.1//EN" "http://www.w3.org/Graphics/SVG/1.1/DTD/svg11.dtd">
<svg version="1.1" id="Layer_1" xmlns="http://www.w3.org/2000/svg" xmlns:xlink="http://www.w3.org/1999/xlink" x="0px" y="0px"
	 viewBox="0 0 512 512" enable-background="new 0 0 512 512" xml:space="preserve">
<path d="M447,335c0-4.4-3.6-8.4-8-8.4s-8,4.1-8,8.5c0,0.1,0-1.2,0,0.8h-1v83.3L309.3,298.1l0.2,0c-1.4-1.2-3.1-1.9-5.1-1.9
	c-4.4,0-7.9,3.6-7.9,8c0,2,0.8,3.8,2,5.2l0-0.3L419.7,430H336v0.7c0,0-0.7,0-0.8,0c-4.4,0-8.3,3.6-8.3,8s4,8,8.4,8
	c0.1,0,0.7,0,0.7,0v0.4h111V336h0C447,334,447,335.1,447,335z"/>
<path d="M176.2,446.9c4.4,0,8.4-3.6,8.4-8s-4.2-8-8.7-8c-0.1,0,1.1,0-0.9,0V430H92l121.2-120.8l0,0.2c1.2-1.4,1.9-3.1,1.9-5.1
	c0-4.4-3.6-7.9-8-7.9c-2,0-3.8,0.8-5.2,2l0.1,0L81,419.5V336h-0.3c0,0,0-0.8,0-0.9c0-4.4-3.6-8.3-8-8.3c-4.4,0-8,4-8,8.5
	c0,0.1,0,0.7,0,0.7H64v111h111v-0.2C177,446.8,176.1,446.9,176.2,446.9z"/>
<path d="M64,176.1c0,4.4,3.6,8.4,8,8.4c4.4,0,8-4.2,8-8.6c0-0.1,0,1.1,0-0.9h1V91.9l120.7,121.2l-0.2,0c1.4,1.2,3.1,1.9,5.1,1.9
	c4.4,0,7.9-3.6,7.9-8c0-2-0.8-3.8-2-5.2l0,0.2L91.3,81H175v-0.5c0,0,0.7,0,0.8,0c4.4,0,8.3-3.6,8.3-8c0-4.4-4-8-8.4-8
	c-0.1,0-0.7,0-0.7,0V64H64v111h0C64,177,64,176,64,176.1z"/>
<path d="M334.8,64.3c-4.4,0-8.4,3.6-8.4,8s4.2,8,8.7,8c0.1,0-1.1,0,0.9,0V81h83L297.8,201.9l0-0.1c-1.2,1.4-1.9,3.1-1.9,5.1
	c0,4.4,3.6,8,8,8c2,0,3.8-0.8,5.2-2l-0.1,0L430,91.7V175h0.3c0,0,0,0.9,0,1c0,4.4,3.6,8.4,8,8.4c4.4,0,8-4.1,8-8.5
	c0-0.1,0-0.8,0-0.8h0.7V64H336v0.3C334,64.3,334.9,64.3,334.8,64.3z"/>
</svg>
