<?xml version="1.0" encoding="utf-8"?>
<!-- Generator: Adobe Illustrator 17.1.0, SVG Export Plug-In . SVG Version: 6.00 Build 0)  -->
<!DOCTYPE svg PUBLIC "-//W3C//DTD SVG 1.1//EN" "http://www.w3.org/Graphics/SVG/1.1/DTD/svg11.dtd">
<svg version="1.1" id="Layer_1" xmlns="http://www.w3.org/2000/svg" xmlns:xlink="http://www.w3.org/1999/xlink" x="0px" y="0px"
	 viewBox="0 0 512 512" enable-background="new 0 0 512 512" xml:space="preserve">
<g>
	<path d="M55.3,447.7h255.5c10.1,0,18.3-8.2,18.3-18.3V310.8c0-5-4.1-9.1-9.1-9.1c-5,0-9.1,4.1-9.1,9.1v118.6H55.3V82.6h255.5v118.6
		c0,5,4.1,9.1,9.1,9.1c5,0,9.1-4.1,9.1-9.1V82.6c0-10.1-8.2-18.3-18.3-18.3H55.3C45.2,64.3,37,72.5,37,82.6v346.8
		C37,439.5,45.2,447.7,55.3,447.7z"/>
	<path d="M386.4,322.6c-1.6,1.6-2.7,3.9-2.7,6.5c0,5,4.1,9.1,9.1,9.1c2.5,0,4.8-1,6.5-2.7l73-73c1.7-1.7,2.7-3.9,2.7-6.5
		c0-2.5-1-4.8-2.7-6.5l-73-73c-1.6-1.7-3.9-2.7-6.5-2.7c-5,0-9.1,4.1-9.1,9.1c0,2.5,1,4.8,2.7,6.5l57.4,57.4H155.6
		c-5,0-9.1,4.1-9.1,9.1c0,5,4.1,9.1,9.1,9.1h288.3L386.4,322.6z"/>
</g>
</svg>
