<?xml version="1.0" encoding="utf-8"?>
<!-- Generator: Adobe Illustrator 17.1.0, SVG Export Plug-In . SVG Version: 6.00 Build 0)  -->
<!DOCTYPE svg PUBLIC "-//W3C//DTD SVG 1.1//EN" "http://www.w3.org/Graphics/SVG/1.1/DTD/svg11.dtd">
<svg version="1.1" id="Layer_1" xmlns="http://www.w3.org/2000/svg" xmlns:xlink="http://www.w3.org/1999/xlink" x="0px" y="0px"
	 viewBox="0 0 512 512" enable-background="new 0 0 512 512" xml:space="preserve">
<path d="M266,268.9V266h2.9h167.3c5.4,0,9.9-4.6,9.9-10c0-5.4-4.4-10-9.9-10H268.9H266v-2.8V75.9c0-5.4-4.1-9.9-9.5-9.9
	c-5.4,0-9.5,4.4-9.5,9.9v167.3v2.8h-3.9H75.8c-5.4,0-9.9,4.6-9.9,10c0,5.4,4.4,10,9.9,10h167.3h3.9v2.9v167.3c0,5.4,4.1,9.9,9.5,9.9
	c5.4,0,9.5-4.4,9.5-9.9V268.9z"/>
</svg>
