<?xml version="1.0" encoding="utf-8"?>
<!-- Generator: Adobe Illustrator 17.1.0, SVG Export Plug-In . SVG Version: 6.00 Build 0)  -->
<!DOCTYPE svg PUBLIC "-//W3C//DTD SVG 1.1//EN" "http://www.w3.org/Graphics/SVG/1.1/DTD/svg11.dtd">
<svg version="1.1" id="Layer_1" xmlns="http://www.w3.org/2000/svg" xmlns:xlink="http://www.w3.org/1999/xlink" x="0px" y="0px"
	 viewBox="0 0 512 512" enable-background="new 0 0 512 512" xml:space="preserve">
<path d="M412.4,149.9c-0.1-1-0.6-1.9-1.3-2.6l-77.1-80c0,0,0,0,0,0l-0.5-0.5c-0.5-0.5-1.1-0.9-1.7-1.1c-1.2-0.6-2.6-1-4-1
	c-4.7,0-8.6,3.9-8.6,8.6c0,0.9,0.1,1.8,0.4,2.7c0.2,1,0.6,1.8,1.3,2.5l62.3,64.6H254.7c-41.7,0-80.8,15.5-109.8,43.6
	c-29.4,28.4-45.6,66.9-45.6,108.3c0,41.4,16.3,79.8,45.8,108.3c29.2,28.1,68.2,43.6,110,43.6c41.7,0,80.8-15.7,110.1-44.2
	c29.6-28.8,45.8-67.4,45.8-108.9c0-4.9-3.9-8.8-8.8-8.8s-8.8,3.9-8.8,8.8c0,36.7-14.4,70.8-40.5,96.3c-26,25.3-60.8,39.2-97.9,39.2
	c-37.2,0-71.9-13.7-97.8-38.6c-26-25.1-40.4-58.9-40.4-95.4c0-75.3,60.6-134.1,137.9-134.1h129.7l-62.7,65c0,0,0-0.1,0,0l-0.7,0.7
	c-0.6,0.7-1.1,1.5-1.2,2.4c-0.3,0.9-0.5,1.9-0.5,2.8c0,4.7,3.9,8.6,8.6,8.6c1.4,0,2.7-0.3,3.9-0.9c0.7-0.2,1.3-0.6,1.8-1.2
	l76.9-79.8c0,0,0,0,0,0l0.7-0.7c0.7-0.7,1.1-1.6,1.2-2.5c0.3-0.9,0.4-1.8,0.4-2.7C412.8,151.6,412.6,150.7,412.4,149.9z
	 M324.4,229.8l0.3-0.4L324.4,229.8L324.4,229.8c0,0.3-0.2,0.6-0.2,0.8C324.3,230.4,324.4,230.2,324.4,229.8L324.4,229.8z M330,234.9
	c-0.2,0.2-0.5,0.3-0.8,0.4C329.5,235.2,329.8,235,330,234.9L330,234.9L330,234.9z M407.5,154.3L407.5,154.3l0.1,0.1L407.5,154.3z
	 M407.5,150.6L407.5,150.6l0.1-0.1L407.5,150.6z"/>
</svg>
