<?xml version="1.0" encoding="utf-8"?>
<!-- Generator: Adobe Illustrator 17.1.0, SVG Export Plug-In . SVG Version: 6.00 Build 0)  -->
<!DOCTYPE svg PUBLIC "-//W3C//DTD SVG 1.1//EN" "http://www.w3.org/Graphics/SVG/1.1/DTD/svg11.dtd">
<svg version="1.1" id="Layer_1" xmlns="http://www.w3.org/2000/svg" xmlns:xlink="http://www.w3.org/1999/xlink" x="0px" y="0px"
	 viewBox="0 0 512 512" enable-background="new 0 0 512 512" xml:space="preserve">
<g>
	<g>
		<g>
			<g>
				<path d="M442.7,439.9c1.9,0,3.8,1.5,3.8,4.2c0,2.8-1.9,4.2-3.8,4.2c-1.9,0-3.8-1.5-3.8-4.2C438.9,441.3,440.8,439.9,442.7,439.9
					z"/>
			</g>
		</g>
		<g>
			<g>
				<path d="M447.1,412.7h20v34.7H465v-32.7h-17.9V412.7z M462.4,400.8c0-1.9,1.3-3,2.9-3c1.6,0,2.9,1.2,2.9,3c0,1.9-1.3,3-2.9,3
					C463.7,403.9,462.4,402.7,462.4,400.8z"/>
			</g>
		</g>
		<g>
			<g>
				<path d="M494.7,411.9c9.1,0,16.7,6.7,16.7,18.3c0,11.5-7.6,18.1-16.7,18.1c-9.1,0-16.7-6.7-16.7-18.1
					C478,418.5,485.6,411.9,494.7,411.9z M494.7,446.3c8.3,0,14.4-6.5,14.4-16.1c0-9.6-6.1-16.3-14.4-16.3
					c-8.3,0-14.4,6.7-14.4,16.3C480.3,439.7,486.4,446.3,494.7,446.3z"/>
			</g>
		</g>
		<g>
			<path d="M74.6,421.3l-17.1-23.8h10.9l7.2,10.1c1.7,2.7,3.7,5.7,5.6,8.4h0.4c1.7-2.7,3.6-5.8,5.3-8.5l6.6-10H104l-17.2,24.8
				l18.4,24.7H94.3l-7.9-10.5c-1.9-2.8-4.2-6.1-6.3-8.9h-0.4c-1.8,2.9-3.7,5.9-5.7,8.9l-7.3,10.5H56.1L74.6,421.3z"/>
			<path d="M136.3,396.3c14.5,0,22.8,9.6,22.8,23.4c0,2-0.3,4-0.5,5.2h-37.3c0.6,9.7,7.9,15.5,17.8,15.5c5.4,0,9.9-1.6,14.4-4.3
				l3.5,6.4c-5.2,3.2-11.7,5.8-19.3,5.8c-14.9,0-26.9-9.6-26.9-25.9C111,406.1,123.4,396.3,136.3,396.3z M149.8,418
				c0-8.8-4.8-13.8-13.3-13.8c-7.4,0-14,5-15.3,13.8H149.8z"/>
			<path d="M170.7,397.5h8.3l0.8,11.6h0.3c5.1-8,12.8-12.8,21.6-12.8c3.9,0,6.7,0.6,9.7,2l-2.2,8.6c-3.3-1.1-5.3-1.6-9-1.6
				c-7.1,0-14,3.6-19.5,13.6v28.2h-10V397.5z"/>
			<path d="M244.6,396.3c8.1,0,14.2,3.1,18.2,7.1l-4.9,6.4c-4-3.2-8-5.2-12.9-5.2c-10.6,0-18,7.1-18,17.7s7.2,17.7,17.7,17.7
				c6,0,10.8-2.6,14.8-5.9l4.3,6.5c-5.6,4.9-12.7,7.6-19.9,7.6c-15.5,0-27.3-9.5-27.3-25.9C216.8,405.8,229.6,396.3,244.6,396.3z"/>
			<path d="M270.2,397.5h32.2v49.5h-10v-41.4h-22.2V397.5z M289.1,381c0-4.3,3.2-7.2,7.5-7.2c4.3,0,7.5,2.9,7.5,7.2
				c0,4.4-3.2,7.1-7.5,7.1C292.3,388.1,289.1,385.4,289.1,381z"/>
			<path d="M318.5,434.1c5.6,4,11.6,6.5,19.8,6.5c8.4,0,12.3-2.9,12.3-6.8c0-3.6-4.4-6.1-15.3-8.8c-9.8-2.5-18.5-7-18.5-14.2
				c0-8.3,7.5-14.5,21.3-14.5c7.8,0,15.3,3.1,20.3,6.5l-4.7,6.3c-4.5-2.9-9.6-5.1-15.5-5.1c-8.4,0-11.2,2.7-11.2,6.3
				c0,3.7,6,6,14.5,8.1c12.4,3.1,19.4,7,19.4,14.8c0,8.3-8.1,15.1-22.7,15.1c-9.4,0-18.1-3.5-24.2-7.7L318.5,434.1z"/>
			<path d="M373.3,397.5h7.7l0.8,6.5h0.3c2.3-4.5,5.3-7.7,10.9-7.7c4.9,0,8,2.8,9.2,8.4c2.6-5,6-8.4,11.4-8.4
				c6.9,0,10.8,5.6,10.8,15.5v35.3H415v-34.5c0-5.1-1.4-7.6-4.7-7.6c-3.1,0-5.3,2.2-7.5,6.8v35.3h-7.9v-34.5c0-5.1-1.6-7.6-4.9-7.6
				c-3,0-5.1,2.2-7.3,6.8v35.3h-9.5V397.5z"/>
			<path d="M47,378.8c0,0,1.3,13.6-7.4,21c-3.5-2.2-7.9-3.5-13.1-3.5c-4.8,0-9.5,1.4-13.6,3.9C3.7,392.9,5,378.8,5,378.8
				c-10.3,20.1,0.5,28,0.8,28.2c-2.9,4.1-4.6,9.3-4.6,15.4c0,16.3,12,25.9,26.9,25.9c7.6,0,14.1-2.5,19.3-5.8l-3.5-6.4
				c-4.5,2.6-9,4.3-14.4,4.3c-9.9,0-17.2-5.8-17.8-15.5h37.3c0.2-1.2,0.5-3.1,0.5-5.2c0-4.9-1.1-9.2-3-12.8
				C47.3,406.2,56.9,398.1,47,378.8z M11.4,418c1.3-8.8,7.9-13.8,15.3-13.8c8.5,0,13.3,5,13.3,13.8H11.4z"/>
		</g>
	</g>
</g>
</svg>
