<svg viewBox="0 0 384 384" version="1.1" xmlns="http://www.w3.org/2000/svg" xmlns:xlink="http://www.w3.org/1999/xlink"> <defs> <style type="text/css"><![CDATA[g path{transition: fill 300ms ease;} g:hover path{fill:#d81d4e;} ]]></style> </defs> <a xlink:href="/"> <g stroke="none" stroke-width="1" fill="none" fill-rule="evenodd"> <circle id="Oval" fill="transparent" cx="192" cy="192" r="192"></circle> <path d="M244.1,101.5 C244.1,101.5 247.4,135.3 225.8,153.6 C217.1,148.1 206.2,145 193.3,145 C181.4,145 169.7,148.4 159.6,154.7 C136.5,136.6 140,101.5 140,101.5 C114.4,151.4 141.3,170.9 141.9,171.4 C134.8,181.6 130.4,194.5 130.4,209.6 C130.4,250.1 160.1,274 197.1,274 C216,274 232.1,267.7 244.9,259.7 L236.1,243.9 C225,250.4 213.7,254.5 200.4,254.5 C175.7,254.5 157.6,240.2 156.1,216 L248.7,216 C249.2,213 250,208.2 250,203.2 C250,191.1 247.4,180.3 242.4,171.4 C244.8,169.5 268.7,149.5 244.1,101.5 L244.1,101.5 Z M155.8,198.8 C159.1,176.9 175.4,164.6 193.8,164.6 C214.9,164.6 226.8,176.9 226.8,198.8 L155.8,198.8 Z M192,384 C86.1,384 0,297.9 0,192 C0,86.1 86.1,0 192,0 C297.9,0 384,86.1 384,192 C384,297.9 297.9,384 192,384 Z M192,24.9 C99.8,24.9 24.9,99.9 24.9,192 C24.9,284.2 99.9,359.1 192,359.1 C284.2,359.1 359.1,284.1 359.1,192 C359.1,99.8 284.2,24.9 192,24.9 Z" id="Shape" fill="#BBBBBB"></path> </g> </a> </svg>
