<?xml version="1.0" standalone="no"?>
<!DOCTYPE svg PUBLIC "-//W3C//DTD SVG 1.1//EN" "http://www.w3.org/Graphics/SVG/1.1/DTD/svg11.dtd" >
<svg xmlns="http://www.w3.org/2000/svg">
<metadata></metadata>
<defs>
<font id="source_code_proextralight" horiz-adv-x="1228" >
<font-face units-per-em="2048" ascent="1536" descent="-512" />
<missing-glyph horiz-adv-x="500" />
<glyph horiz-adv-x="0" />
<glyph horiz-adv-x="682" />
<glyph horiz-adv-x="0" />
<glyph horiz-adv-x="0" />
<glyph unicode="&#xd;" />
<glyph unicode=" " />
<glyph unicode="!" d="M508 94q0 59 32.5 89t73.5 30t74 -29.5t33 -89.5q0 -59 -33 -89t-74 -30t-73.5 30t-32.5 89zM586 1245v127h57v-127l-4 -807h-49z" />
<glyph unicode="&#x22;" d="M346 1243l2 166h127l2 -166l-37 -440h-57zM754 1243l2 166h127l2 -166l-37 -440h-57z" />
<glyph unicode="#" d="M205 446v58h180l45 364h-184v58h188l53 405h58l-53 -405h319l53 405h58l-54 -405h168v-58h-172l-45 -364h176v-58h-184l-53 -446h-58l54 446h-320l-53 -446h-57l53 446h-172zM442 504h320l45 364h-320z" />
<glyph unicode="$" d="M209 229l37 45q31 -27 71.5 -52t90 -46.5t106.5 -35t123 -13.5q160 0 243 68.5t83 177.5q0 80 -51.5 132t-128 91t-167 70.5t-167 71.5t-128 95.5t-51.5 141.5q0 63 26 115.5t70 89.5t104 59.5t130 26.5v270h62v-270q117 -6 189.5 -47t131.5 -97l-41 -41 q-35 29 -65.5 52.5t-67.5 40t-81 25.5t-101 9q-131 0 -211 -62.5t-80 -166.5q0 -74 51 -120t128 -82t167 -67.5t167 -73.5t128 -103.5t51 -155.5q0 -70 -28.5 -125t-79 -95t-117 -62.5t-141.5 -24.5v-295h-62v297q-129 6 -227.5 55t-163.5 102z" />
<glyph unicode="%" d="M59 1007q0 160 75 244t195 84q121 0 196 -84t75 -244q0 -162 -75 -249t-196 -87t-195.5 87.5t-74.5 248.5zM78 119l368 409l37 -32l-352 -422zM121 1007q0 -135 59 -208.5t149 -73.5t149.5 73.5t59.5 208.5q0 137 -59 206t-150 69q-90 0 -149 -68.5t-59 -206.5zM631 311 q0 160 75 244t195 84q121 0 196 -84t75 -244q0 -162 -75 -249t-196 -87t-195.5 87.5t-74.5 248.5zM693 311q0 -135 59 -208.5t149 -73.5t149.5 73.5t59.5 208.5q0 137 -59 206t-150 69q-90 0 -149 -68.5t-59 -206.5zM745 856l353 422l53 -45l-369 -410z" />
<glyph unicode="&#x26;" d="M117 340q0 66 23.5 121t62.5 104t90 92t104 84q-43 88 -67.5 174t-24.5 166q0 63 19.5 117.5t55.5 94.5t84 61.5t107 21.5q104 0 158.5 -67.5t54.5 -169.5q0 -66 -27.5 -120t-71.5 -103.5t-101.5 -94.5t-114.5 -90q72 -139 175.5 -268t211.5 -227q78 96 132 212.5 t91 251.5h62q-41 -141 -100.5 -269t-141.5 -232q143 -119 266 -166l-24 -58q-61 23 -132 67t-149 110q-74 -78 -162 -127.5t-200 -49.5q-78 0 -146.5 26t-121 73t-83 114.5t-30.5 151.5zM182 344q0 -72 25.5 -129t70 -97t101.5 -62.5t123 -22.5q90 0 170 44t145 113 q-111 104 -216 233.5t-179 270.5q-49 -37 -92 -75.5t-76 -81.5t-52.5 -90.5t-19.5 -102.5zM367 1085q0 -72 21.5 -149.5t57.5 -157.5q53 39 103.5 79t88.5 83t61.5 91t23.5 104q0 33 -8 66.5t-26.5 59t-48.5 42t-73 16.5q-47 0 -85 -18.5t-63.5 -50t-38.5 -75t-13 -90.5z " />
<glyph unicode="'" d="M549 1243l2 166h127l2 -166l-37 -440h-57z" />
<glyph unicode="(" d="M471 569q0 305 128 535.5t353 388.5l35 -47q-227 -170 -336.5 -387t-109.5 -490q0 -272 109.5 -489t336.5 -387l-35 -47q-225 158 -353 388t-128 535z" />
<glyph unicode=")" d="M242 -307q227 170 336.5 387t109.5 489t-109.5 489.5t-336.5 387.5l34 47q225 -158 353.5 -388.5t128.5 -535.5t-128 -535.5t-354 -387.5z" />
<glyph unicode="*" d="M248 1176l18 49l303 -101l19 334h53l18 -330l304 97l18 -49l-291 -136l187 -297l-50 -34l-213 280l-213 -280l-49 34l187 297z" />
<glyph unicode="+" d="M201 606v58h381v417h65v-417h381v-58h-381v-418h-65v418h-381z" />
<glyph unicode="," d="M426 -379q123 63 185.5 153.5t66.5 231.5q-23 -8 -49 -8q-49 0 -80 25.5t-31 82.5q0 59 34 85t75 26q63 0 96 -52t33 -138q0 -168 -84 -282t-219 -175z" />
<glyph unicode="-" d="M291 557v82h647v-82h-647z" />
<glyph unicode="." d="M508 94q0 59 32.5 89t73.5 30t74 -29.5t33 -89.5q0 -59 -33 -89t-74 -30t-73.5 30t-32.5 89z" />
<glyph unicode="/" d="M246 -328l667 1782h70l-668 -1782h-69z" />
<glyph unicode="0" d="M172 659q0 328 114.5 502t327.5 174t328 -174t115 -502q0 -324 -115 -504t-328 -180t-327.5 180.5t-114.5 503.5zM238 659q0 -305 103 -465.5t273 -160.5t273.5 160.5t103.5 465.5t-103.5 462t-273.5 157t-273 -156.5t-103 -462.5zM508 680q0 59 32.5 89t73.5 30t74 -30 t33 -89t-33 -89t-74 -30t-73.5 30t-32.5 89z" />
<glyph unicode="1" d="M229 0v57h398v1131h-287v45q98 12 173 32.5t128 45.5h47v-1254h377v-57h-836z" />
<glyph unicode="2" d="M170 1143q78 80 176 136t227 56q193 0 296.5 -98t103.5 -262q0 -100 -48 -199.5t-139.5 -210t-221.5 -236.5t-294 -280q63 4 124 6t124 2h529v-57h-873v41q186 170 325.5 303t229.5 243.5t135 204t45 183.5q0 63 -19.5 118.5t-60.5 96.5t-105.5 64.5t-152.5 23.5 q-104 0 -195 -49t-161 -127z" />
<glyph unicode="3" d="M143 160l41 45q33 -33 73 -63.5t92 -55.5t115.5 -39t141.5 -14t145.5 22.5t117 62.5t78 96t28.5 126q0 141 -130 230t-411 89v62q133 0 226.5 23.5t152.5 64.5t86 95t27 116q0 57 -24.5 105.5t-67.5 82t-103.5 52t-132.5 18.5q-104 0 -199.5 -43t-156.5 -105l-41 46 q72 66 171 112.5t226 46.5q82 0 153.5 -21.5t125 -61.5t84 -97t30.5 -131q0 -66 -23.5 -119t-64.5 -93t-96 -68.5t-119 -47.5v-8q70 -12 133.5 -41t112.5 -73t77.5 -102t28.5 -128q0 -84 -33.5 -152.5t-93 -116.5t-139.5 -74t-172 -26q-86 0 -155.5 16.5t-126 43 t-100.5 59.5t-77 66z" />
<glyph unicode="4" d="M88 401v35l741 877h31v-852h236v-60h-236v-401h-61v401h-711zM188 461h611v555q4 47 5 93t5 93h-12q-31 -41 -63 -83t-62 -83z" />
<glyph unicode="5" d="M131 152l41 45q33 -31 73 -61t90 -52.5t113.5 -36.5t145.5 -14q80 0 150.5 26.5t125 75.5t86 118t31.5 153q0 166 -103.5 261t-285.5 95q-47 0 -87 -6t-76 -18.5t-69.5 -29t-70.5 -36.5l-53 33l49 606h692v-58h-635l-45 -503q66 33 134.5 53t164.5 20t179 -24.5 t143.5 -74.5t94.5 -129t34 -185q0 -104 -39 -185.5t-103.5 -136.5t-148.5 -84t-172 -29q-90 0 -160 16.5t-124 41t-97 56.5t-78 63z" />
<glyph unicode="6" d="M184 590q0 209 44 351t119 230.5t172 126t202 37.5q104 0 182 -33.5t141 -89.5l-40 -45q-117 111 -287 111q-92 0 -176 -35t-148.5 -114.5t-103.5 -210t-39 -320.5q88 86 190.5 137t223.5 51q193 0 301 -103t108 -302q0 -88 -32.5 -162t-89 -128t-131.5 -85t-156 -31 q-225 0 -352.5 161t-127.5 454zM252 520q6 -106 34.5 -196.5t79 -155t125.5 -100t177 -35.5q74 0 136 27.5t107 74.5t71 110.5t26 135.5q0 164 -86 256t-263 92q-92 0 -197.5 -48t-209.5 -161z" />
<glyph unicode="7" d="M156 1253v58h921v-37q-135 -158 -226 -304.5t-146.5 -297t-82 -315t-32.5 -357.5h-74q8 205 38 372t87 314.5t143 284.5t207 282h-835z" />
<glyph unicode="8" d="M152 336q0 74 27.5 132t72.5 103t99.5 79t109.5 59v8q-82 45 -144.5 121.5t-62.5 181.5q0 70 28.5 127t78 99t117 65.5t147.5 23.5q94 0 167.5 -25.5t123 -71.5t75 -108.5t25.5 -134.5q0 -96 -61.5 -183t-149.5 -153v-8q55 -29 104 -57.5t86 -66.5t57.5 -89t20.5 -123 t-29.5 -133t-87 -107t-141.5 -73t-190 -27q-109 0 -197 28t-149.5 76t-94 113.5t-32.5 143.5zM217 336q0 -63 27.5 -118.5t80 -96.5t128 -64.5t172.5 -23.5q94 0 165.5 22.5t119.5 60.5t73 89t25 110q0 88 -39 144.5t-106.5 96.5t-156 68.5t-186.5 59.5q-66 -31 -121 -64.5 t-95 -75.5t-63.5 -93.5t-23.5 -114.5zM319 1020q0 -74 33 -127t90.5 -93t132 -68.5t160.5 -55.5q215 143 215 319q0 57 -20.5 108.5t-62.5 90.5t-102 61.5t-140 22.5q-70 0 -126.5 -19.5t-96.5 -54.5t-61.5 -82t-21.5 -102z" />
<glyph unicode="9" d="M160 930q0 88 32.5 161.5t89 128t131 85t156.5 30.5q225 0 352.5 -160.5t127.5 -453.5q0 -209 -44 -351.5t-119 -230.5t-172.5 -126t-201.5 -38t-182 34t-142 89l41 45q117 -111 287 -110q92 0 176 34.5t148.5 114.5t103.5 210t39 321q-88 -86 -190.5 -137.5 t-223.5 -51.5q-193 0 -301 103.5t-108 302.5zM225 930q0 -164 86 -256t262 -92q92 0 198 48t210 161q-6 106 -34.5 196t-79 154.5t-126 100.5t-176.5 36q-74 0 -136 -27.5t-107.5 -75t-71 -111t-25.5 -134.5z" />
<glyph unicode=":" d="M508 94q0 59 32.5 89t73.5 30t74 -29.5t33 -89.5q0 -59 -33 -89t-74 -30t-73.5 30t-32.5 89zM508 885q0 59 32.5 89t73.5 30t74 -29.5t33 -89.5q0 -59 -33 -89t-74 -30t-73.5 30t-32.5 89z" />
<glyph unicode=";" d="M426 -379q123 63 185.5 153.5t66.5 231.5q-23 -8 -49 -8q-49 0 -80 25.5t-31 82.5q0 59 34 85t75 26q63 0 96 -52t33 -138q0 -168 -84 -282t-219 -175zM508 885q0 59 32.5 89t73.5 30t74 -29.5t33 -89.5q0 -59 -33 -89t-74 -30t-73.5 30t-32.5 89z" />
<glyph unicode="&#x3c;" d="M254 606v66l741 520v-74l-676 -475v-8l676 -475v-74z" />
<glyph unicode="=" d="M201 403v58h827v-58h-827zM201 811v58h827v-58h-827z" />
<glyph unicode="&#x3e;" d="M233 86v74l676 475v8l-676 475v74l742 -520v-66z" />
<glyph unicode="?" d="M242 1245q66 66 154.5 109t205.5 43q82 0 147.5 -24.5t109.5 -66.5t67.5 -97.5t23.5 -118.5q0 -68 -29.5 -122.5t-72.5 -102.5t-92 -94t-89 -96t-62.5 -107.5t-10.5 -129.5h-57q-12 76 8 136.5t58 111.5t87 96t92 91.5t73 97.5t30 114q0 51 -16.5 97.5t-51.5 81t-89 55 t-130 20.5q-90 0 -170 -34.5t-141 -100.5zM479 94q0 59 33 89t74 30t73.5 -29.5t32.5 -89.5q0 -59 -32.5 -89t-73.5 -30t-74 30t-33 89z" />
<glyph unicode="@" d="M131 508q0 184 44 329.5t123 245t187.5 151.5t235.5 52q98 0 171 -36t122 -100.5t72.5 -151.5t23.5 -187v-606h-53l-8 131h-9q-25 -29 -58.5 -57.5t-72.5 -50t-80 -35t-79 -13.5q-53 0 -101.5 15.5t-85.5 47t-58.5 79t-21.5 112.5q0 147 140.5 230.5t425.5 117.5v27 q0 86 -18.5 163t-58.5 134t-103.5 90t-153.5 33q-111 0 -205 -49.5t-164 -143.5t-109.5 -228t-39.5 -304t36.5 -306.5t103 -231.5t159 -147t204.5 -52q92 0 167 25.5t137 76.5l32 -45q-145 -115 -336 -115q-119 0 -223 54.5t-181 157t-121 250.5t-44 337zM549 434 q0 -94 56.5 -145t152.5 -51q66 0 141.5 43t149.5 133v315q-266 -37 -383 -108.5t-117 -186.5z" />
<glyph unicode="A" d="M102 0l484 1352h57l483 -1352h-69l-168 483h-551l-170 -483h-66zM358 541h510l-94 270q-43 123 -81 233.5t-75 237.5h-8q-37 -127 -74.5 -237.5t-80.5 -233.5z" />
<glyph unicode="B" d="M244 0v1352h327q205 0 322 -81t117 -247q0 -109 -60.5 -186.5t-181.5 -108.5v-8q152 -23 240 -104.5t88 -223.5q0 -195 -134.5 -294t-365.5 -99h-352zM309 57h262q106 0 191.5 19.5t145 60.5t91 103.5t31.5 148.5q0 154 -119.5 228.5t-339.5 74.5h-262v-635zM309 750h221 q221 0 317.5 70.5t96.5 211.5q0 139 -101.5 200.5t-299.5 61.5h-234v-544z" />
<glyph unicode="C" d="M152 680q0 160 40.5 289t115.5 219t180.5 139t234.5 49q117 0 204 -49t140 -110l-41 -46q-55 66 -131 105t-172 39q-117 0 -210 -44t-157.5 -127t-99.5 -201t-35 -263t35 -264t98.5 -203t154.5 -130t206 -46q109 0 191.5 43t160.5 129l41 -41q-78 -90 -171 -141.5 t-226 -51.5q-125 0 -227.5 50.5t-176.5 142.5t-114.5 222t-40.5 290z" />
<glyph unicode="D" d="M205 0v1352h303q156 0 270.5 -48.5t189 -137.5t110.5 -213t36 -273q0 -152 -36 -276.5t-110.5 -214t-189 -139.5t-270.5 -50h-303zM270 57h230q143 0 246.5 47.5t170 130t97 197.5t30.5 248t-30.5 245.5t-97 194.5t-170 128t-246.5 46h-230v-1237z" />
<glyph unicode="E" d="M270 0v1352h787v-58h-721v-544h606v-58h-606v-635h741v-57h-807z" />
<glyph unicode="F" d="M319 0v1352h775v-58h-711v-569h598v-57h-598v-668h-64z" />
<glyph unicode="G" d="M125 680q0 160 41 289t116.5 219t182 139t237.5 49q66 0 120.5 -14t97.5 -38t76.5 -52.5t60.5 -54.5l-41 -46q-53 59 -128 101.5t-186 42.5q-119 0 -213 -44t-159.5 -127t-100 -201t-34.5 -263t33.5 -264t97 -203t154.5 -130t206 -46q98 0 181 28.5t134 81.5v447h-327v57 h395v-524q-61 -68 -158.5 -110t-228.5 -42q-127 0 -229.5 50.5t-175 142.5t-112.5 222t-40 290z" />
<glyph unicode="H" d="M188 0v1352h66v-602h721v602h65v-1352h-65v692h-721v-692h-66z" />
<glyph unicode="I" d="M229 0v57h353v1237h-353v58h770v-58h-352v-1237h352v-57h-770z" />
<glyph unicode="J" d="M201 201l61 35q59 -104 140 -152.5t169 -48.5q178 0 257 95t79 288v880h-596v56h662v-942q0 -90 -20.5 -170t-67.5 -139.5t-124 -93.5t-192 -34q-117 0 -215 56.5t-153 169.5z" />
<glyph unicode="K" d="M250 0v1352h65v-779h4l705 779h80l-442 -496l501 -856h-78l-473 807l-297 -328v-479h-65z" />
<glyph unicode="L" d="M319 0v1352h62v-1295h721v-57h-783z" />
<glyph unicode="M" d="M195 0v1352h94l237 -652l86 -245h9l81 245l238 652h94v-1352h-65v1014q0 63 2 130.5t4 131.5h-6l-74 -225l-252 -680h-55l-254 680l-80 225h-4q2 -63 5 -131t3 -131v-1014h-63z" />
<glyph unicode="N" d="M197 0v1352h67l561 -996l150 -262h4q-2 98 -5 190.5t-3 188.5v879h61v-1352h-67l-562 995l-149 262h-4q2 -98 5 -186t3 -184v-887h-61z" />
<glyph unicode="O" d="M115 680q0 160 36.5 289t103.5 219t159 139t200 49q109 0 201 -49t158.5 -139t103.5 -219t37 -289t-37 -290t-103.5 -222t-158.5 -142.5t-201 -50.5t-200.5 50.5t-158.5 142.5t-103.5 222t-36.5 290zM184 680q0 -145 31 -264t88 -203t136 -130t175 -46t175 46t136.5 130 t88 203t30.5 264t-30.5 263t-88 201t-136 127t-175.5 44q-96 0 -175 -44t-136 -127t-88 -201t-31 -263z" />
<glyph unicode="P" d="M254 0v1352h352q227 0 351 -83t124 -286q0 -195 -122.5 -290t-352.5 -95h-287v-598h-65zM319 655h263q219 0 324.5 76t105.5 252q0 178 -106.5 244.5t-323.5 66.5h-263v-639z" />
<glyph unicode="Q" d="M123 680q0 160 36 289t100.5 220t154.5 140t200 49q111 0 201 -49t154.5 -140t100.5 -220t36 -289q0 -154 -33 -280t-93 -217t-144 -144t-187 -62q35 -102 116 -159.5t216 -57.5q31 0 54.5 4.5t39.5 10.5l15 -66q-33 -8 -61 -12t-56 -4q-82 0 -146.5 21.5t-113.5 60.5 t-83 91t-55 111q-102 8 -185 62.5t-142.5 145.5t-92 217t-32.5 278zM188 680q0 -145 30 -264t85 -204t134 -132t177 -47t177 47t134.5 132t85 204t29.5 264t-29.5 264t-85 203t-134 129t-177.5 45q-98 0 -177 -45t-134 -129t-85 -203t-30 -264z" />
<glyph unicode="R" d="M254 0v1352h373q100 0 180 -19.5t136 -61.5t87 -107.5t31 -159.5q0 -162 -97.5 -253.5t-267.5 -107.5l385 -643h-77l-381 639h-304v-639h-65zM319 696h283q188 0 288.5 75t100.5 233q0 160 -100 225t-289 65h-283v-598z" />
<glyph unicode="S" d="M164 180l45 45q78 -86 187.5 -137t238.5 -51q86 0 155.5 21.5t118.5 59.5t76 91t27 119q0 68 -21.5 113.5t-58.5 79.5t-86 58.5t-105 47.5l-209 94q-47 18 -98 45t-95 64.5t-72.5 92t-28.5 130.5q0 72 30.5 131t84 102t127 66.5t159.5 23.5q129 0 228.5 -48t160.5 -111 l-41 -46q-61 66 -149 105t-199 39q-152 0 -244 -70.5t-92 -187.5q0 -63 25.5 -107.5t64.5 -76t84 -53t84 -38.5l209 -94q59 -25 114.5 -54.5t98.5 -70.5t68.5 -97t25.5 -134t-31.5 -142.5t-90 -112.5t-139.5 -75t-181 -27q-158 0 -274.5 57.5t-196.5 147.5z" />
<glyph unicode="T" d="M102 1294v58h1024v-58h-479v-1294h-65v1294h-480z" />
<glyph unicode="U" d="M188 504v848h66v-832q0 -139 29.5 -232t80 -148.5t115 -79t135.5 -23.5q72 0 138.5 23.5t117 79t80 148.5t29.5 232v832h61v-848q0 -158 -36.5 -259.5t-96 -161.5t-136.5 -84t-157 -24t-156.5 24t-136 84t-96.5 161.5t-37 259.5z" />
<glyph unicode="V" d="M133 1352h70l262 -811q20 -63 37.5 -118.5t35 -110t35 -111t39.5 -117.5h9q20 61 38.5 117.5t36 111t35 109.5t37.5 119l262 811h66l-447 -1352h-65z" />
<glyph unicode="W" d="M31 1354h59l160 -953q10 -82 23.5 -161.5t23.5 -161.5h4q27 82 51.5 161.5t46.5 161.5l181 598h71l185 -598q23 -82 46 -162.5t48 -160.5h8q10 80 23.5 160.5t23.5 162.5l154 953h57l-223 -1354h-86l-207 678q-16 59 -30.5 116.5t-31.5 116.5h-6q-16 -59 -31.5 -116.5 t-33.5 -116.5l-201 -678h-86z" />
<glyph unicode="X" d="M170 0l410 700l-381 652h69l238 -418q29 -47 52.5 -86t57.5 -94h9q31 55 52 94t50 86l238 418h65l-381 -656l410 -696h-70l-250 434q-29 49 -59.5 100.5t-67.5 112.5h-8q-35 -61 -62.5 -112.5t-56.5 -100.5l-249 -434h-66z" />
<glyph unicode="Y" d="M115 1352h65l254 -463q47 -78 90 -158t90 -162h9q49 82 94 162l90 160l246 461h61l-467 -850v-502h-65v502z" />
<glyph unicode="Z" d="M147 0v39l852 1259h-780v56h858v-39l-854 -1258h869v-57h-945z" />
<glyph unicode="[" d="M504 -311v1761h532v-47h-475v-1667h475v-47h-532z" />
<glyph unicode="\" d="M246 1454h69l668 -1782h-70z" />
<glyph unicode="]" d="M193 -264h475v1667h-475v47h532v-1761h-532v47z" />
<glyph unicode="^" d="M270 598l308 774h73l307 -774h-65l-168 438l-107 271h-8l-106 -271l-168 -438h-66z" />
<glyph unicode="_" d="M123 -168h983v-78h-983v78z" />
<glyph unicode="`" d="M451 1446h81l189 -275h-57z" />
<glyph unicode="a" d="M197 240q0 82 44 143t136 105t237.5 74t348.5 48q0 63 -14.5 125t-48.5 108t-93 74.5t-148 28.5q-59 0 -114.5 -13t-105.5 -34.5t-91 -46.5t-69 -45l-33 49q27 20 69.5 46t98 48.5t120 38t130.5 15.5q98 0 166.5 -30t111.5 -81t62.5 -117.5t19.5 -140.5v-635h-53l-8 152 h-5q-43 -35 -93 -67t-103 -56.5t-109.5 -39t-111.5 -14.5q-66 0 -127.5 15.5t-109.5 47.5t-77.5 82t-29.5 120zM262 242q0 -57 24.5 -97.5t64.5 -65t90.5 -35.5t103.5 -11q195 0 418 188v336q-199 -18 -333 -46t-216 -66.5t-117 -89t-35 -113.5z" />
<glyph unicode="b" d="M225 0v1479h62v-439l-4 -217q82 80 184 130.5t201 50.5q211 0 314 -136.5t103 -363.5q0 -125 -37.5 -223.5t-100 -166t-145.5 -103.5t-175 -36q-76 0 -168 37t-168 99h-4l-8 -111h-54zM287 188q92 -84 186 -119.5t158 -35.5q84 0 155.5 34.5t124 97t81 149.5t28.5 190 q0 94 -19.5 175t-62.5 140.5t-110.5 93t-163.5 33.5q-82 0 -180.5 -47t-196.5 -145v-566z" />
<glyph unicode="c" d="M184 487q0 123 42 219.5t114 162t168 100.5t205 35q61 0 112.5 -12.5t94.5 -34t77.5 -49t65.5 -56.5l-41 -45q-63 61 -138 100t-171 39q-102 0 -187.5 -33.5t-147 -94t-95 -145.5t-33.5 -186q0 -102 32.5 -185t94 -143.5t146.5 -93t190 -32.5q104 0 188 41t152 106 l37 -45q-74 -72 -167.5 -116t-209.5 -44q-115 0 -211 35t-167 100.5t-111 160.5t-40 216z" />
<glyph unicode="d" d="M143 487q0 119 38 214.5t102.5 163t149.5 103.5t177 36q96 0 175 -38t161 -106l-4 205v414h62v-1479h-54l-8 152h-4q-66 -70 -159 -123.5t-201 -53.5q-96 0 -176 34t-137.5 98.5t-89.5 159.5t-32 220zM209 487q0 -102 25.5 -185t73.5 -143.5t117 -93t157 -32.5 q92 0 182 50t178 142v566q-90 86 -172 120.5t-164 34.5q-84 0 -155.5 -36t-126 -98t-85 -146.5t-30.5 -178.5z" />
<glyph unicode="e" d="M164 487q0 119 41 215.5t109.5 163t156.5 102.5t180 36q98 0 178 -31t137.5 -89.5t88 -141.5t30.5 -189v-31.5t-4 -34.5h-852q0 -98 33 -181t91.5 -144.5t141.5 -95t185 -33.5t184 30.5t152 79.5l28 -53q-33 -20 -68.5 -40.5t-80.5 -37t-98.5 -27t-120.5 -10.5 q-104 0 -197.5 35t-163 101.5t-110.5 160.5t-41 215zM229 541h795q0 203 -103.5 304t-269.5 101q-78 0 -149.5 -28.5t-129 -81t-95 -127t-48.5 -168.5z" />
<glyph unicode="f" d="M246 922v49l299 8v131q0 188 88 290.5t268 102.5q63 0 128 -12t142 -49l-24 -49q-35 16 -64.5 26.5t-58.5 16.5t-58.5 8t-64.5 2q-82 0 -138 -24.5t-92 -67.5t-52.5 -103.5t-16.5 -132.5v-139h471v-57h-471v-922h-57v922h-299z" />
<glyph unicode="g" d="M180 -190q0 57 44 120.5t124 114.5v8q-37 16 -69.5 55t-32.5 101q0 47 29.5 95t89.5 89v8q-47 41 -81 102.5t-34 151.5q0 74 27.5 137.5t76.5 110.5t113.5 74t138.5 27q76 0 131 -25h410v-57h-311q49 -47 88 -114t39 -153q0 -74 -28 -137t-77 -109.5t-113.5 -72 t-138.5 -25.5q-47 0 -96 12.5t-96 36.5q-47 -29 -75 -66.5t-28 -78.5q0 -76 64.5 -110.5t169.5 -34.5h252q186 0 268 -50.5t82 -166.5q0 -61 -36 -121t-101.5 -107t-159.5 -75.5t-211 -28.5q-233 0 -346 81t-113 208zM246 -199q0 -94 93 -158.5t288 -64.5q106 0 191 23.5 t143.5 62.5t89 87t30.5 97q0 88 -66.5 122t-201.5 34h-248q-35 0 -74.5 4t-74.5 15q-96 -51 -133 -108t-37 -114zM315 655q0 -63 22.5 -115.5t62.5 -90t93.5 -59t112.5 -21.5t112.5 21.5t93.5 59t62.5 90t22.5 115.5t-22.5 116.5t-62.5 92.5t-93 60.5t-113 21.5 q-59 0 -112.5 -21.5t-93.5 -60.5t-62.5 -92t-22.5 -117z" />
<glyph unicode="h" d="M225 0v1479h62v-439l-4 -266q98 102 191 166t214 64q180 0 268 -95.5t88 -298.5v-610h-61v602q0 174 -69.5 259t-225.5 85q-55 0 -103 -14t-95.5 -44t-96.5 -75t-106 -104v-709h-62z" />
<glyph unicode="i" d="M205 922v57h565v-979h-61v922h-504zM635 1315q0 41 23.5 63.5t58.5 22.5t58.5 -22.5t23.5 -63.5t-23.5 -63.5t-58.5 -22.5t-58.5 22.5t-23.5 63.5z" />
<glyph unicode="j" d="M135 -414l29 54q47 -25 112.5 -43.5t131.5 -18.5q90 0 148 23.5t92 64.5t47.5 99.5t13.5 128.5v1028h-504v57h565v-1073q0 -90 -18.5 -162t-61.5 -121t-114.5 -75.5t-178.5 -26.5q-66 0 -137.5 18.5t-124.5 46.5zM635 1315q0 41 23.5 63.5t58.5 22.5t58.5 -22.5 t23.5 -63.5t-23.5 -63.5t-58.5 -22.5t-58.5 22.5t-23.5 63.5z" />
<glyph unicode="k" d="M266 0v1479h62v-1123l4 4l672 619h81l-405 -377l475 -602h-74l-450 565l-303 -286v-279h-62z" />
<glyph unicode="l" d="M199 1421v58h436v-1209q0 -237 217 -237h2q49 0 99.5 13t111.5 42l25 -51q-59 -23 -113.5 -42.5t-126.5 -19.5q-133 0 -205 71t-72 237v1138h-374z" />
<glyph unicode="m" d="M164 0v979h53l8 -135h4q45 74 95.5 117t132.5 43q84 0 131 -43t67 -134q57 86 109.5 131.5t134.5 45.5q102 0 156.5 -72t54.5 -219v-713h-61v705q0 241 -153 241h-1q-72 0 -123 -49t-104 -147v-750h-62v705q0 241 -152 241h-1q-72 0 -123 -49t-105 -147v-750h-61z" />
<glyph unicode="n" d="M225 0v979h54l8 -197h8q43 47 88 88t92 71t100.5 46.5t112.5 16.5q180 0 268 -95.5t88 -298.5v-610h-61v602q0 174 -69.5 259t-225.5 85q-55 0 -103 -14t-95.5 -44t-96.5 -75t-106 -104v-709h-62z" />
<glyph unicode="o" d="M143 487q0 123 38 219.5t102.5 162t149.5 100.5t181 35t181.5 -35t150 -100.5t102 -162t37.5 -219.5q0 -121 -37.5 -216t-102 -160.5t-149.5 -100.5t-182 -35q-96 0 -181 35t-149.5 100.5t-102.5 160.5t-38 216zM209 487q0 -102 30.5 -185t85 -143.5t128 -93t161.5 -32.5 t162 32.5t128 93t85 143.5t31 185q0 100 -31 185.5t-85 146t-128 94t-162 33.5t-161.5 -33.5t-128 -94t-85 -146t-30.5 -185.5z" />
<glyph unicode="p" d="M225 -455v1434h54l8 -148h4q76 74 177 123.5t200 49.5q211 0 314 -136.5t103 -363.5q0 -125 -37.5 -223.5t-101 -166t-147.5 -103.5t-176 -36q-72 0 -165 38t-171 106v-205v-369h-62zM287 188q92 -84 186 -119.5t154 -35.5q86 0 157.5 34.5t124 97t82 149.5t29.5 190 q0 94 -19.5 175t-62.5 140.5t-110.5 93t-163.5 33.5q-82 0 -180.5 -47t-196.5 -145v-566z" />
<glyph unicode="q" d="M143 487q0 119 38 214.5t102.5 163t149.5 103.5t177 36q96 0 174 -37t154 -103h4l8 115h54v-1434h-62v410l4 201q-74 -74 -167 -127.5t-201 -53.5q-96 0 -176 34t-137.5 98.5t-89.5 159.5t-32 220zM209 487q0 -102 25.5 -185t73.5 -143.5t117 -93t157 -32.5q92 0 182 50 t178 142v566q-90 86 -172 120.5t-164 34.5q-84 0 -155.5 -36t-126 -98t-85 -146.5t-30.5 -178.5z" />
<glyph unicode="r" d="M348 0v979h53l9 -246h4q80 117 198.5 194t270.5 77q47 0 98 -8.5t98 -32.5l-16 -58q-55 20 -93 28.5t-96 8.5q-127 0 -242.5 -71.5t-221.5 -243.5v-627h-62z" />
<glyph unicode="s" d="M178 131l39 49q80 -68 183.5 -107.5t263.5 -39.5q80 0 140 17.5t101 46t61.5 66.5t20.5 79q0 35 -13 66.5t-53 60t-112 56.5t-186 54q-86 20 -157 47t-123 61t-81 74.5t-29 88.5q0 51 21.5 97t68 81t116 55.5t167.5 20.5q94 0 196.5 -33t172.5 -86l-37 -49 q-66 49 -148.5 79.5t-187.5 30.5q-86 0 -144.5 -16.5t-94 -43t-50 -61t-14.5 -71.5q0 -74 91 -125t249 -90q121 -31 201 -60.5t127 -64.5t66.5 -76t19.5 -92q0 -53 -27 -102.5t-77 -86.5t-122.5 -59.5t-167.5 -22.5q-154 0 -274.5 46.5t-206.5 109.5z" />
<glyph unicode="t" d="M174 922v49l301 8l8 287h54v-287h534v-57h-534v-570q0 -74 12 -133t43 -100t85 -63.5t140 -22.5q82 0 146.5 14t123.5 39l21 -49q-66 -29 -146.5 -45.5t-148.5 -16.5q-98 0 -162.5 28t-103.5 79t-55.5 121.5t-16.5 156.5v562h-301z" />
<glyph unicode="u" d="M184 369v610h62v-602q0 -174 69.5 -259t225.5 -85q55 0 104 14t97.5 44t97.5 74t102 105v709h62v-979h-54l-8 197h-8q-82 -96 -177 -159t-216 -63q-180 0 -268.5 95.5t-88.5 298.5z" />
<glyph unicode="v" d="M135 979h66l286 -635q35 -74 67 -143.5t60 -134.5h9q29 66 58.5 135t63.5 143l287 635h62l-447 -979h-61z" />
<glyph unicode="w" d="M25 979h69l170 -660q16 -68 32.5 -130t31.5 -128h8q16 66 33.5 128.5t33.5 129.5l170 660h86l170 -660q16 -68 34 -130t34 -128h8q16 66 32.5 128.5t33.5 129.5l168 660h65l-262 -979h-86l-168 639q-18 72 -33.5 139.5t-36.5 139.5h-8q-16 -72 -31.5 -141.5t-37.5 -141.5 l-164 -635h-86z" />
<glyph unicode="x" d="M176 0l399 508l-366 471h74l200 -262q31 -41 61.5 -82t65.5 -82h8q35 41 70 84t66 84l196 258h70l-371 -471l404 -508h-74l-221 281q-35 41 -71 90t-73 92h-8q-37 -47 -71.5 -91t-71.5 -93l-217 -279h-70z" />
<glyph unicode="y" d="M131 979h66l303 -643q29 -61 65.5 -135t73.5 -140h8q31 66 61.5 139.5t57.5 135.5l270 643h62l-471 -1118q-20 -57 -53 -113.5t-80.5 -101.5t-107.5 -73t-136 -28q-29 0 -60.5 5.5t-52.5 15.5l21 57q18 -6 43.5 -11t54.5 -5q59 0 107.5 21.5t88.5 58.5t70.5 88t55.5 110 l36 90z" />
<glyph unicode="z" d="M147 0v33l803 889h-717v57h816v-33l-803 -889h827v-57h-926z" />
<glyph unicode="{" d="M270 545v49q96 0 156.5 14.5t94.5 37t46.5 53t12.5 61.5q0 98 -9.5 212.5t-9.5 219.5q0 76 23.5 126t70.5 78.5t118 41t165 12.5h98v-47h-123q-90 0 -146 -13.5t-89 -40t-44 -68.5t-11 -97q0 -94 7 -197.5t7 -204.5q0 -86 -34 -138t-136 -71v-8q102 -18 136 -70.5 t34 -138.5q0 -57 -2 -107t-5 -98.5t-5 -96.5t-2 -99q0 -55 11 -97t44 -69t89 -40t146 -13h123v-47h-98q-94 0 -165 12t-118 41t-70.5 79t-23.5 126q0 115 9.5 218t9.5 214q0 31 -12.5 61.5t-46.5 53t-94 37t-157 14.5z" />
<glyph unicode="|" d="M586 -512v2048h57v-2048h-57z" />
<glyph unicode="}" d="M193 -264h122q90 0 147.5 13t90.5 40t45 69t12 97q0 51 -3 99t-6 96.5t-5 98.5t-2 107q0 84 32.5 137.5t135.5 71.5v8q-102 18 -135 71.5t-33 137.5q0 100 8 204t8 198q0 55 -12 97t-45 68.5t-90 40t-148 13.5h-122v47h98q94 0 164.5 -12.5t116.5 -41t70 -78.5t24 -126 q0 -104 -8.5 -219t-8.5 -213q0 -31 12.5 -61.5t46 -53t93 -37t155.5 -14.5v-49q-96 0 -155.5 -14.5t-93 -37t-46 -53t-12.5 -61.5q0 -111 8.5 -214.5t8.5 -217.5q0 -76 -24 -126t-70 -79t-116.5 -41t-164.5 -12h-98v47z" />
<glyph unicode="~" d="M197 532q43 131 105.5 178.5t127.5 47.5q57 0 106.5 -30t93.5 -64.5t86 -64.5t87 -30q27 0 50.5 5.5t46 23.5t43 55t40.5 101l49 -21q-43 -129 -105.5 -175t-127.5 -46q-59 0 -107.5 29.5t-92.5 64.5t-86 64.5t-87 29.5q-27 0 -50.5 -6t-46 -24.5t-43 -55t-40.5 -98.5z " />
<glyph unicode="&#xa0;" />
<glyph unicode="&#xa1;" d="M508 885q0 59 32.5 89t73.5 30t74 -30t33 -89t-33 -89t-74 -30t-73.5 29.5t-32.5 89.5zM586 -266l4 807h49l4 -807v-127h-57v127z" />
<glyph unicode="&#xa2;" d="M258 639q0 106 30.5 189t84 141.5t124 92.5t150.5 42v231h58v-229q98 -2 164.5 -40t113.5 -83l-37 -41q-47 45 -107.5 75t-133.5 32v-820q80 2 147.5 35t118.5 80l37 -41q-59 -53 -135 -91t-168 -40v-225h-58v227q-84 8 -155.5 42t-124 93.5t-81 142.5t-28.5 187z M324 639q0 -86 22.5 -156.5t65.5 -124t102 -86t133 -41.5v813q-70 -8 -129 -40.5t-102 -86t-67.5 -124t-24.5 -154.5z" />
<glyph unicode="&#xa3;" d="M168 606v53l229 5q-29 84 -57.5 164.5t-28.5 166.5q0 158 105.5 249t294.5 91q127 0 208.5 -44t133.5 -99l-45 -41q-53 53 -125 90t-181 37q-82 0 -144 -22.5t-103 -60.5t-62.5 -88t-21.5 -108q0 -88 30.5 -168.5t59.5 -166.5h420v-58h-404q23 -78 23 -160 q0 -135 -47 -222t-140 -158v-9h744v-57h-879v37q143 68 203.5 178.5t60.5 230.5q0 41 -7 81t-19 79h-248z" />
<glyph unicode="&#xa4;" d="M156 246l176 180q-37 49 -57.5 111.5t-20.5 134.5q0 76 20.5 139t57.5 113l-176 182l41 45l176 -182q47 47 109.5 71.5t131.5 24.5q68 0 130.5 -24.5t111.5 -71.5l176 182l41 -45l-178 -182q37 -49 58.5 -112.5t21.5 -139.5q0 -72 -21.5 -134.5t-56.5 -111.5l176 -180 l-41 -45l-176 180q-47 -47 -110.5 -72.5t-131.5 -25.5q-141 0 -243 98l-174 -180zM319 672q0 -74 24 -135.5t63.5 -104.5t94 -67.5t113.5 -24.5t113.5 24.5t94.5 67.5t63.5 104.5t23.5 135.5t-23.5 135t-63.5 106t-94 70t-114 25q-59 0 -113.5 -25t-94 -70t-63.5 -106 t-24 -135z" />
<glyph unicode="&#xa5;" d="M143 1311h66l240 -414q41 -68 79.5 -136.5t81.5 -146.5h8q43 78 83 146.5t83 136.5l240 414h61l-419 -701h374v-57h-397v-152h397v-57h-397v-344h-61v344h-394v57h394v152h-394v57h371z" />
<glyph unicode="&#xa6;" d="M586 455h57v-967h-57v967zM586 561v975h57v-975h-57z" />
<glyph unicode="&#xa7;" d="M217 729q0 51 16.5 92t44 73t64.5 57.5t80 47.5q-33 31 -51.5 71t-18.5 93q0 39 15.5 80t48.5 75t83 54.5t119 20.5q86 0 161 -30t134 -77l-36 -45q-53 41 -112.5 67.5t-146.5 26.5q-55 0 -94 -14t-63.5 -39t-35.5 -54.5t-11 -60.5q0 -72 44 -115.5t110.5 -77.5 t144.5 -63.5t144.5 -70.5t110.5 -102.5t44 -155.5q0 -53 -15.5 -93t-41 -71t-62.5 -55.5t-80 -45.5q33 -31 52.5 -72.5t19.5 -97.5q0 -53 -23.5 -98t-62.5 -77.5t-89.5 -51t-103.5 -18.5q-111 0 -194.5 34.5t-145.5 88.5l45 45q57 -49 123 -80t172 -31q98 0 157.5 55.5 t59.5 128.5q0 74 -45 120t-112.5 80t-145.5 63.5t-145.5 70.5t-112.5 99.5t-45 152.5zM279 733q0 -57 23.5 -99t62 -74t89 -55.5t103.5 -46t106.5 -46t98.5 -52.5q45 18 80 38t59.5 44.5t36.5 57t12 78.5q0 88 -50 142t-124 93t-156.5 70.5t-148.5 77.5q-84 -43 -138 -93.5 t-54 -134.5z" />
<glyph unicode="&#xa8;" d="M369 1307q0 31 19.5 52t49.5 21q31 0 50.5 -21.5t19.5 -51.5q0 -31 -19.5 -52.5t-50.5 -21.5t-50 21.5t-19 52.5zM721 1307q0 31 19.5 52t50.5 21t50 -21.5t19 -51.5q0 -31 -19 -52.5t-50 -21.5t-50.5 21.5t-19.5 52.5z" />
<glyph unicode="&#xa9;" d="M82 659q0 154 39 279t109.5 213t168 136t215.5 48q119 0 216.5 -48t168 -136t109.5 -213t39 -279q0 -156 -39 -281.5t-109.5 -214.5t-168 -138.5t-216.5 -49.5t-216 49.5t-167.5 138.5t-109.5 214.5t-39 281.5zM143 659q0 -141 34 -257.5t95.5 -199.5t148.5 -128t193 -45 t193.5 45t149 128t95 199.5t33.5 257.5t-33.5 256t-95 196t-148.5 126t-194 45q-106 0 -193 -45t-148.5 -126t-95.5 -196t-34 -256zM311 659q0 88 27 159t71 120t102 75.5t124 26.5q68 0 114 -24.5t87 -65.5l-37 -45q-41 35 -78 54.5t-90 19.5q-109 0 -179.5 -87t-70.5 -233 q0 -160 67.5 -252t178.5 -92q66 0 112.5 26t87.5 60l33 -45q-47 -43 -99 -72.5t-138 -29.5q-63 0 -120 26.5t-100 79t-67.5 128t-24.5 171.5z" />
<glyph unicode="&#xaa;" d="M365 694q0 111 112.5 166t345.5 80q0 39 -7 76t-26.5 64.5t-52 45t-84.5 17.5q-72 0 -130 -25.5t-97 -50.5l-31 47q39 25 109.5 54.5t154.5 29.5q125 0 177.5 -72.5t52.5 -179.5v-414h-55l-7 84h-2q-53 -41 -117.5 -70.5t-134.5 -29.5q-41 0 -78.5 11.5t-66.5 33t-46 55 t-17 78.5zM430 698q0 -68 47 -97.5t109 -29.5q59 0 116.5 27t120.5 76v217q-213 -23 -303 -70t-90 -123z" />
<glyph unicode="&#xab;" d="M237 487v58l283 336l41 -37l-258 -328l258 -332l-41 -32zM645 487v58l283 336l41 -37l-258 -328l258 -332l-41 -32z" />
<glyph unicode="&#xac;" d="M201 606v58h827v-476h-65v418h-762z" />
<glyph unicode="&#xad;" d="M291 557v82h647v-82h-647z" />
<glyph unicode="&#xae;" d="M246 1061q0 88 29.5 161.5t80 126t117 81t141.5 28.5q76 0 142.5 -28.5t117 -81t80 -126t29.5 -161.5q0 -90 -29.5 -162t-80 -124t-117 -79.5t-142.5 -27.5t-142 27.5t-116.5 79.5t-80 124t-29.5 162zM303 1061q0 -74 24.5 -136.5t66.5 -107.5t98 -70.5t122 -25.5 q63 0 121 25.5t100 70.5t66.5 107.5t24.5 136.5t-24.5 136.5t-66.5 108.5t-99.5 72.5t-121.5 26.5q-66 0 -122 -26.5t-98 -72.5t-66.5 -108.5t-24.5 -136.5zM479 856v426h135q29 0 57.5 -6t50 -21.5t35 -40t13.5 -63.5q0 -41 -23.5 -72.5t-58.5 -42.5l103 -180h-70l-82 160 h-102v-160h-58zM537 1069h61q49 0 80 17.5t31 60.5q0 37 -21.5 59.5t-81.5 22.5h-69v-160z" />
<glyph unicode="&#xaf;" d="M389 1245v58h451v-58h-451z" />
<glyph unicode="&#xb0;" d="M389 1163q0 57 19.5 101.5t50 75t71.5 46t84 15.5t84 -15.5t72 -46t50.5 -74.5t19.5 -102q0 -55 -19.5 -98t-50.5 -73.5t-72 -46t-84 -15.5t-84 15.5t-71.5 46t-50 73.5t-19.5 98zM446 1163q0 -78 47 -129t121 -51t121 51t47 129q0 80 -47 132.5t-121 52.5t-121 -52.5 t-47 -132.5z" />
<glyph unicode="&#xb1;" d="M201 0v57h827v-57h-827zM201 598v57h381v426h65v-426h381v-57h-381v-430h-65v430h-381z" />
<glyph unicode="&#xb2;" d="M381 1421q37 49 94 84t123 35q102 0 157.5 -52t55.5 -151q0 -47 -23.5 -91t-65.5 -89t-99.5 -95t-124.5 -108h350v-53h-453v41q92 76 160 133t111 102.5t63.5 83t20.5 78.5q0 70 -40 109t-112 39q-53 0 -97 -28t-75 -71z" />
<glyph unicode="&#xb3;" d="M365 1007l49 37q31 -49 83 -81.5t117 -32.5q72 0 116 29.5t44 97.5q0 131 -233 131v49q106 0 153 40t47 95q0 53 -32.5 84t-106.5 31q-39 0 -86 -20.5t-78 -61.5l-41 37q35 45 91.5 71.5t117.5 26.5q90 0 143.5 -42t53.5 -122q0 -61 -30 -99t-89 -61q61 -12 106.5 -52 t45.5 -107q0 -92 -63.5 -136.5t-162.5 -44.5q-78 0 -144.5 40t-100.5 91z" />
<glyph unicode="&#xb4;" d="M508 1171l188 275h82l-213 -275h-57z" />
<glyph unicode="&#xb5;" d="M205 -410v1389h61v-623q0 -164 65.5 -243.5t213.5 -79.5q104 0 188 53t189 164v729h61v-979h-53l-8 176h-9q-78 -86 -168 -143.5t-204 -57.5q-92 0 -161 28t-118 108l4 -197v-324h-61z" />
<glyph unicode="&#xb6;" d="M188 930q0 113 35 193.5t97.5 131t149.5 74t194 23.5h90v-840h-54q-115 0 -209 22.5t-161.5 72.5t-104.5 129t-37 194zM868 -164v1516h58v-1516h-58z" />
<glyph unicode="&#xb7;" d="M508 700q0 59 32.5 89t73.5 30t74 -29.5t33 -89.5q0 -59 -33 -89t-74 -30t-73.5 30t-32.5 89z" />
<glyph unicode="&#xb8;" d="M491 -369q86 12 139.5 38t53.5 69q0 49 -40 71.5t-100 38.5l82 156h58l-62 -119q49 -16 86 -47t37 -92q0 -39 -20.5 -67.5t-54.5 -49t-78 -33t-89 -18.5z" />
<glyph unicode="&#xb9;" d="M446 1403v49q59 10 99.5 25.5t77.5 37.5h49v-614h-58v502h-168z" />
<glyph unicode="&#xba;" d="M307 856q0 82 24.5 145.5t66.5 107.5t98.5 66.5t117.5 22.5q63 0 118.5 -22.5t97.5 -66.5t67 -107.5t25 -145.5q0 -80 -25 -143.5t-67 -107.5t-97 -66.5t-119 -22.5q-61 0 -117.5 22.5t-98.5 66.5t-66.5 107.5t-24.5 143.5zM375 856q0 -63 17.5 -115.5t50 -89.5 t75.5 -57.5t96 -20.5q51 0 95.5 20.5t77 57.5t50 89.5t17.5 115.5t-17.5 115.5t-50 90.5t-76.5 59.5t-96 21.5q-53 0 -96 -21.5t-75.5 -59.5t-50 -90.5t-17.5 -115.5z" />
<glyph unicode="&#xbb;" d="M262 184l258 332l-258 328l41 37l282 -336v-58l-282 -335zM670 184l258 332l-258 328l41 37l282 -336v-58l-282 -335z" />
<glyph unicode="&#xbc;" d="M78 119l368 409l37 -32l-352 -422zM161 1198v49q59 10 99.5 25.5t77.5 37.5h49v-614h-58v502h-168zM656 170v31l352 413h41v-395h100v-49h-100v-170h-57v170h-336zM738 219h254v170l8 139h-8l-109 -135zM745 856l353 422l53 -45l-369 -410z" />
<glyph unicode="&#xbd;" d="M78 119l368 409l37 -32l-352 -422zM161 1198v49q59 10 99.5 25.5t77.5 37.5h49v-614h-58v502h-168zM668 520q37 49 94 84t123 35q102 0 157.5 -52t55.5 -151q0 -47 -23.5 -91t-65.5 -89t-99.5 -95t-124.5 -108h350v-53h-453v41q92 76 160 133t111 102.5t63.5 83 t20.5 78.5q0 70 -40 109t-112 39q-53 0 -97 -28t-75 -71zM745 856l353 422l53 -45l-369 -410z" />
<glyph unicode="&#xbe;" d="M80 802l49 37q31 -49 83 -81.5t117 -32.5q72 0 116 29.5t44 97.5q0 131 -233 131v49q106 0 153 40t47 95q0 53 -32.5 84t-106.5 31q-39 0 -86 -20.5t-78 -61.5l-41 37q35 45 91.5 71.5t117.5 26.5q90 0 143.5 -42t53.5 -122q0 -61 -30 -99t-89 -61q61 -12 106.5 -52 t45.5 -107q0 -92 -63.5 -136.5t-162.5 -44.5q-78 0 -144.5 40t-100.5 91zM160 119l368 409l37 -32l-352 -422zM656 170v31l352 413h41v-395h100v-49h-100v-170h-57v170h-336zM738 219h254v170l8 139h-8l-109 -135zM827 856l353 422l53 -45l-369 -410z" />
<glyph unicode="&#xbf;" d="M283 -111q0 68 29.5 122.5t72.5 102.5t92 94t89 96t61.5 107.5t11.5 129.5h57q12 -78 -8 -137.5t-58 -110.5t-87 -96t-92 -91.5t-73 -97.5t-30 -114q0 -51 16.5 -97.5t51.5 -81t89 -55t130 -20.5q90 0 170 34.5t141 100.5l45 -41q-66 -66 -154.5 -109t-205.5 -43 q-84 0 -148.5 24.5t-108.5 66.5t-67.5 97.5t-23.5 118.5zM541 885q0 59 32.5 89t73.5 30t74 -30t33 -89t-33 -89t-74 -30t-73.5 29.5t-32.5 89.5z" />
<glyph unicode="&#xc0;" d="M102 0l484 1352h57l483 -1352h-69l-168 483h-551l-170 -483h-66zM358 541h510l-94 270q-43 123 -81 233.5t-75 237.5h-8q-37 -127 -74.5 -237.5t-80.5 -233.5zM397 1667h90l193 -213h-62z" />
<glyph unicode="&#xc1;" d="M102 0l484 1352h57l483 -1352h-69l-168 483h-551l-170 -483h-66zM358 541h510l-94 270q-43 123 -81 233.5t-75 237.5h-8q-37 -127 -74.5 -237.5t-80.5 -233.5zM549 1454l192 213h90l-221 -213h-61z" />
<glyph unicode="&#xc2;" d="M102 0l484 1352h57l483 -1352h-69l-168 483h-551l-170 -483h-66zM358 541h510l-94 270q-43 123 -81 233.5t-75 237.5h-8q-37 -127 -74.5 -237.5t-80.5 -233.5zM389 1454l197 213h57l197 -213h-62l-160 152h-8l-159 -152h-62z" />
<glyph unicode="&#xc3;" d="M102 0l484 1352h57l483 -1352h-69l-168 483h-551l-170 -483h-66zM358 541h510l-94 270q-43 123 -81 233.5t-75 237.5h-8q-37 -127 -74.5 -237.5t-80.5 -233.5zM360 1470q2 29 10.5 61t25 57.5t41 42t59.5 16.5q39 0 69.5 -18.5t58 -41t54.5 -41t59 -18.5q35 0 57.5 32.5 t28.5 86.5h45q-2 -29 -10 -61t-24.5 -57.5t-42 -42t-58.5 -16.5q-41 0 -70.5 18.5t-57 41t-54.5 41t-59 18.5q-35 0 -57.5 -32.5t-28.5 -86.5h-46z" />
<glyph unicode="&#xc4;" d="M102 0l484 1352h57l483 -1352h-69l-168 483h-551l-170 -483h-66zM358 541h510l-94 270q-43 123 -81 233.5t-75 237.5h-8q-37 -127 -74.5 -237.5t-80.5 -233.5zM393 1556q0 31 18.5 48.5t47.5 17.5t47 -17.5t18 -48.5t-18 -48t-47 -17t-47.5 17.5t-18.5 47.5zM705 1556 q0 31 18 48.5t47 17.5t47.5 -17.5t18.5 -48.5t-18.5 -48t-47.5 -17t-47 17.5t-18 47.5z" />
<glyph unicode="&#xc5;" d="M102 0l484 1352h57l483 -1352h-69l-168 483h-551l-170 -483h-66zM358 541h510l-94 270q-43 123 -81 233.5t-75 237.5h-8q-37 -127 -74.5 -237.5t-80.5 -233.5zM455 1597q0 74 46 119t113 45q66 0 113 -45t47 -119t-47 -118.5t-113 -44.5q-68 0 -113.5 45t-45.5 118z M504 1597q0 -59 31.5 -88.5t78.5 -29.5q43 0 75 29.5t32 88.5q0 55 -32 87t-75 32q-47 0 -78.5 -31.5t-31.5 -87.5z" />
<glyph unicode="&#xc6;" d="M0 0l618 1352h566v-58h-459v-544h348v-58h-348v-635h479v-57h-545v463h-378l-207 -463h-74zM305 520h354v770h-8q-53 -121 -107.5 -238.5t-109.5 -244.5z" />
<glyph unicode="&#xc7;" d="M152 680q0 160 40.5 289t115.5 219t180.5 139t234.5 49q117 0 204 -49t140 -110l-41 -46q-55 66 -131 105t-172 39q-117 0 -210 -44t-157.5 -127t-99.5 -201t-35 -263t35 -264t98.5 -203t154.5 -130t206 -46q109 0 191.5 43t160.5 129l41 -41q-78 -90 -171 -141.5 t-226 -51.5q-125 0 -227.5 50.5t-176.5 142.5t-114.5 222t-40.5 290zM549 -369q86 12 139 38t53 69q0 49 -40 71.5t-99 38.5l82 156h57l-61 -119q49 -16 86 -47t37 -92q0 -39 -20.5 -67.5t-54.5 -49t-78 -33t-89 -18.5z" />
<glyph unicode="&#xc8;" d="M270 0v1352h787v-58h-721v-544h606v-58h-606v-635h741v-57h-807zM475 1667h90l193 -213h-62z" />
<glyph unicode="&#xc9;" d="M270 0v1352h787v-58h-721v-544h606v-58h-606v-635h741v-57h-807zM627 1454l192 213h90l-221 -213h-61z" />
<glyph unicode="&#xca;" d="M270 0v1352h787v-58h-721v-544h606v-58h-606v-635h741v-57h-807zM467 1454l197 213h57l197 -213h-62l-160 152h-8l-159 -152h-62z" />
<glyph unicode="&#xcb;" d="M270 0v1352h787v-58h-721v-544h606v-58h-606v-635h741v-57h-807zM471 1556q0 31 18.5 48.5t47.5 17.5t47 -17.5t18 -48.5t-18 -48t-47 -17t-47.5 17.5t-18.5 47.5zM783 1556q0 31 18 48.5t47 17.5t47.5 -17.5t18.5 -48.5t-18.5 -48t-47.5 -17t-47 17.5t-18 47.5z" />
<glyph unicode="&#xcc;" d="M229 0v57h353v1237h-353v58h770v-58h-352v-1237h352v-57h-770zM397 1667h90l193 -213h-62z" />
<glyph unicode="&#xcd;" d="M229 0v57h353v1237h-353v58h770v-58h-352v-1237h352v-57h-770zM549 1454l192 213h90l-221 -213h-61z" />
<glyph unicode="&#xce;" d="M229 0v57h353v1237h-353v58h770v-58h-352v-1237h352v-57h-770zM389 1454l197 213h57l197 -213h-62l-160 152h-8l-159 -152h-62z" />
<glyph unicode="&#xcf;" d="M229 0v57h353v1237h-353v58h770v-58h-352v-1237h352v-57h-770zM393 1556q0 31 18.5 48.5t47.5 17.5t47 -17.5t18 -48.5t-18 -48t-47 -17t-47.5 17.5t-18.5 47.5zM705 1556q0 31 18 48.5t47 17.5t47.5 -17.5t18.5 -48.5t-18.5 -48t-47.5 -17t-47 17.5t-18 47.5z" />
<glyph unicode="&#xd0;" d="M57 688v49l160 8v607h303q156 0 270.5 -48.5t189.5 -137.5t110.5 -213t35.5 -273q0 -152 -35.5 -276.5t-110.5 -214t-189.5 -139.5t-270.5 -50h-303v688h-160zM283 57h229q143 0 246.5 47.5t170 130t97.5 197.5t31 248t-31 245.5t-97.5 194.5t-170 128t-246.5 46h-229 v-549h352v-57h-352v-631z" />
<glyph unicode="&#xd1;" d="M197 0v1352h67l561 -996l150 -262h4q-2 98 -5 190.5t-3 188.5v879h61v-1352h-67l-562 995l-149 262h-4q2 -98 5 -186t3 -184v-887h-61zM372 1470q2 29 10.5 61t25 57.5t41 42t59.5 16.5q39 0 69.5 -18.5t58 -41t54.5 -41t59 -18.5q35 0 57.5 32.5t28.5 86.5h45 q-2 -29 -10 -61t-24.5 -57.5t-42 -42t-58.5 -16.5q-41 0 -70.5 18.5t-57 41t-54.5 41t-59 18.5q-35 0 -57.5 -32.5t-28.5 -86.5h-46z" />
<glyph unicode="&#xd2;" d="M115 680q0 160 36.5 289t103.5 219t159 139t200 49q109 0 201 -49t158.5 -139t103.5 -219t37 -289t-37 -290t-103.5 -222t-158.5 -142.5t-201 -50.5t-200.5 50.5t-158.5 142.5t-103.5 222t-36.5 290zM184 680q0 -145 31 -264t88 -203t136 -130t175 -46t175 46t136.5 130 t88 203t30.5 264t-30.5 263t-88 201t-136 127t-175.5 44q-96 0 -175 -44t-136 -127t-88 -201t-31 -263zM397 1667h90l193 -213h-62z" />
<glyph unicode="&#xd3;" d="M115 680q0 160 36.5 289t103.5 219t159 139t200 49q109 0 201 -49t158.5 -139t103.5 -219t37 -289t-37 -290t-103.5 -222t-158.5 -142.5t-201 -50.5t-200.5 50.5t-158.5 142.5t-103.5 222t-36.5 290zM184 680q0 -145 31 -264t88 -203t136 -130t175 -46t175 46t136.5 130 t88 203t30.5 264t-30.5 263t-88 201t-136 127t-175.5 44q-96 0 -175 -44t-136 -127t-88 -201t-31 -263zM549 1454l192 213h90l-221 -213h-61z" />
<glyph unicode="&#xd4;" d="M115 680q0 160 36.5 289t103.5 219t159 139t200 49q109 0 201 -49t158.5 -139t103.5 -219t37 -289t-37 -290t-103.5 -222t-158.5 -142.5t-201 -50.5t-200.5 50.5t-158.5 142.5t-103.5 222t-36.5 290zM184 680q0 -145 31 -264t88 -203t136 -130t175 -46t175 46t136.5 130 t88 203t30.5 264t-30.5 263t-88 201t-136 127t-175.5 44q-96 0 -175 -44t-136 -127t-88 -201t-31 -263zM389 1454l197 213h57l197 -213h-62l-160 152h-8l-159 -152h-62z" />
<glyph unicode="&#xd5;" d="M115 680q0 160 36.5 289t103.5 219t159 139t200 49q109 0 201 -49t158.5 -139t103.5 -219t37 -289t-37 -290t-103.5 -222t-158.5 -142.5t-201 -50.5t-200.5 50.5t-158.5 142.5t-103.5 222t-36.5 290zM184 680q0 -145 31 -264t88 -203t136 -130t175 -46t175 46t136.5 130 t88 203t30.5 264t-30.5 263t-88 201t-136 127t-175.5 44q-96 0 -175 -44t-136 -127t-88 -201t-31 -263zM360 1470q2 29 10.5 61t25 57.5t41 42t59.5 16.5q39 0 69.5 -18.5t58 -41t54.5 -41t59 -18.5q35 0 57.5 32.5t28.5 86.5h45q-2 -29 -10 -61t-24.5 -57.5t-42 -42 t-58.5 -16.5q-41 0 -70.5 18.5t-57 41t-54.5 41t-59 18.5q-35 0 -57.5 -32.5t-28.5 -86.5h-46z" />
<glyph unicode="&#xd6;" d="M115 680q0 160 36.5 289t103.5 219t159 139t200 49q109 0 201 -49t158.5 -139t103.5 -219t37 -289t-37 -290t-103.5 -222t-158.5 -142.5t-201 -50.5t-200.5 50.5t-158.5 142.5t-103.5 222t-36.5 290zM184 680q0 -145 31 -264t88 -203t136 -130t175 -46t175 46t136.5 130 t88 203t30.5 264t-30.5 263t-88 201t-136 127t-175.5 44q-96 0 -175 -44t-136 -127t-88 -201t-31 -263zM393 1556q0 31 18.5 48.5t47.5 17.5t47 -17.5t18 -48.5t-18 -48t-47 -17t-47.5 17.5t-18.5 47.5zM705 1556q0 31 18 48.5t47 17.5t47.5 -17.5t18.5 -48.5t-18.5 -48 t-47.5 -17t-47 17.5t-18 47.5z" />
<glyph unicode="&#xd7;" d="M238 287l335 348l-335 348l41 45l335 -352l336 352l41 -45l-336 -348l336 -348l-41 -45l-336 352l-335 -352z" />
<glyph unicode="&#xd8;" d="M115 680q0 160 36.5 289t103.5 219t159 139t200 49q197 0 330 -151l113 168l45 -33l-121 -182q63 -90 98 -216t35 -282q0 -160 -37 -290t-103.5 -222t-158.5 -142.5t-201 -50.5q-98 0 -183 41t-150 119l-117 -176l-45 33l127 190q-61 92 -96 218t-35 280zM184 680 q0 -135 27 -245.5t74 -192.5l622 927q-115 145 -293 146q-96 0 -175 -44t-136 -127t-88 -201t-31 -263zM319 190q55 -74 130 -113.5t165 -39.5q96 0 175 46t136.5 130t88 203t30.5 264q0 135 -26.5 246.5t-77.5 193.5z" />
<glyph unicode="&#xd9;" d="M188 504v848h66v-832q0 -139 29.5 -232t80 -148.5t115 -79t135.5 -23.5q72 0 138.5 23.5t117 79t80 148.5t29.5 232v832h61v-848q0 -158 -36.5 -259.5t-96 -161.5t-136.5 -84t-157 -24t-156.5 24t-136 84t-96.5 161.5t-37 259.5zM397 1667h90l193 -213h-62z" />
<glyph unicode="&#xda;" d="M188 504v848h66v-832q0 -139 29.5 -232t80 -148.5t115 -79t135.5 -23.5q72 0 138.5 23.5t117 79t80 148.5t29.5 232v832h61v-848q0 -158 -36.5 -259.5t-96 -161.5t-136.5 -84t-157 -24t-156.5 24t-136 84t-96.5 161.5t-37 259.5zM549 1454l192 213h90l-221 -213h-61z" />
<glyph unicode="&#xdb;" d="M188 504v848h66v-832q0 -139 29.5 -232t80 -148.5t115 -79t135.5 -23.5q72 0 138.5 23.5t117 79t80 148.5t29.5 232v832h61v-848q0 -158 -36.5 -259.5t-96 -161.5t-136.5 -84t-157 -24t-156.5 24t-136 84t-96.5 161.5t-37 259.5zM389 1454l197 213h57l197 -213h-62 l-160 152h-8l-159 -152h-62z" />
<glyph unicode="&#xdc;" d="M188 504v848h66v-832q0 -139 29.5 -232t80 -148.5t115 -79t135.5 -23.5q72 0 138.5 23.5t117 79t80 148.5t29.5 232v832h61v-848q0 -158 -36.5 -259.5t-96 -161.5t-136.5 -84t-157 -24t-156.5 24t-136 84t-96.5 161.5t-37 259.5zM393 1556q0 31 18.5 48.5t47.5 17.5 t47 -17.5t18 -48.5t-18 -48t-47 -17t-47.5 17.5t-18.5 47.5zM705 1556q0 31 18 48.5t47 17.5t47.5 -17.5t18.5 -48.5t-18.5 -48t-47.5 -17t-47 17.5t-18 47.5z" />
<glyph unicode="&#xdd;" d="M115 1352h65l254 -463q47 -78 90 -158t90 -162h9q49 82 94 162l90 160l246 461h61l-467 -850v-502h-65v502zM549 1454l192 213h90l-221 -213h-61z" />
<glyph unicode="&#xde;" d="M254 0v1352h65v-246h287q227 0 351 -83t124 -286q0 -195 -122.5 -290t-352.5 -95h-287v-352h-65zM319 410h263q219 0 324.5 75.5t105.5 251.5q0 178 -106.5 245t-323.5 67h-263v-639z" />
<glyph unicode="&#xdf;" d="M225 0v1102q0 94 28 167.5t77 126t116.5 80t147.5 27.5q68 0 122 -20.5t92 -57t59.5 -86t21.5 -106.5q0 -80 -37 -137.5t-80 -107.5t-80 -100t-37 -114q0 -61 36 -100t90.5 -67.5t118 -55.5t117.5 -63.5t90 -92t36 -141.5q0 -59 -24.5 -110.5t-66.5 -88.5t-99.5 -58.5 t-125.5 -21.5q-88 0 -164.5 29t-136.5 78l39 49q66 -49 127.5 -73.5t136.5 -24.5q61 0 108.5 18.5t78.5 49t46 69.5t15 80q0 76 -35.5 123t-90 79.5t-118 58.5t-117.5 58.5t-90 78.5t-36 122t37 131t80 104.5t79.5 100.5t36.5 123q0 92 -59 154.5t-174 62.5q-133 0 -218 -91 t-85 -282v-1073h-62z" />
<glyph unicode="&#xe0;" d="M197 240q0 82 44 143t136 105t237.5 74t348.5 48q0 63 -14.5 125t-48.5 108t-93 74.5t-148 28.5q-59 0 -114.5 -13t-105.5 -34.5t-91 -46.5t-69 -45l-33 49q27 20 69.5 46t98 48.5t120 38t130.5 15.5q98 0 166.5 -30t111.5 -81t62.5 -117.5t19.5 -140.5v-635h-53l-8 152 h-5q-43 -35 -93 -67t-103 -56.5t-109.5 -39t-111.5 -14.5q-66 0 -127.5 15.5t-109.5 47.5t-77.5 82t-29.5 120zM262 242q0 -57 24.5 -97.5t64.5 -65t90.5 -35.5t103.5 -11q195 0 418 188v336q-199 -18 -333 -46t-216 -66.5t-117 -89t-35 -113.5zM488 1446h81l189 -275h-57z " />
<glyph unicode="&#xe1;" d="M197 240q0 82 44 143t136 105t237.5 74t348.5 48q0 63 -14.5 125t-48.5 108t-93 74.5t-148 28.5q-59 0 -114.5 -13t-105.5 -34.5t-91 -46.5t-69 -45l-33 49q27 20 69.5 46t98 48.5t120 38t130.5 15.5q98 0 166.5 -30t111.5 -81t62.5 -117.5t19.5 -140.5v-635h-53l-8 152 h-5q-43 -35 -93 -67t-103 -56.5t-109.5 -39t-111.5 -14.5q-66 0 -127.5 15.5t-109.5 47.5t-77.5 82t-29.5 120zM262 242q0 -57 24.5 -97.5t64.5 -65t90.5 -35.5t103.5 -11q195 0 418 188v336q-199 -18 -333 -46t-216 -66.5t-117 -89t-35 -113.5zM545 1171l188 275h82 l-213 -275h-57z" />
<glyph unicode="&#xe2;" d="M197 240q0 82 44 143t136 105t237.5 74t348.5 48q0 63 -14.5 125t-48.5 108t-93 74.5t-148 28.5q-59 0 -114.5 -13t-105.5 -34.5t-91 -46.5t-69 -45l-33 49q27 20 69.5 46t98 48.5t120 38t130.5 15.5q98 0 166.5 -30t111.5 -81t62.5 -117.5t19.5 -140.5v-635h-53l-8 152 h-5q-43 -35 -93 -67t-103 -56.5t-109.5 -39t-111.5 -14.5q-66 0 -127.5 15.5t-109.5 47.5t-77.5 82t-29.5 120zM262 242q0 -57 24.5 -97.5t64.5 -65t90.5 -35.5t103.5 -11q195 0 418 188v336q-199 -18 -333 -46t-216 -66.5t-117 -89t-35 -113.5zM430 1171l193 275h57 l193 -275h-58l-160 209h-8l-159 -209h-58z" />
<glyph unicode="&#xe3;" d="M197 240q0 82 44 143t136 105t237.5 74t348.5 48q0 63 -14.5 125t-48.5 108t-93 74.5t-148 28.5q-59 0 -114.5 -13t-105.5 -34.5t-91 -46.5t-69 -45l-33 49q27 20 69.5 46t98 48.5t120 38t130.5 15.5q98 0 166.5 -30t111.5 -81t62.5 -117.5t19.5 -140.5v-635h-53l-8 152 h-5q-43 -35 -93 -67t-103 -56.5t-109.5 -39t-111.5 -14.5q-66 0 -127.5 15.5t-109.5 47.5t-77.5 82t-29.5 120zM262 242q0 -57 24.5 -97.5t64.5 -65t90.5 -35.5t103.5 -11q195 0 418 188v336q-199 -18 -333 -46t-216 -66.5t-117 -89t-35 -113.5zM410 1192q2 27 9 56.5 t22.5 54t39 41t60.5 16.5t66.5 -18.5t56 -40t51 -39t51.5 -17.5q35 0 53.5 31t24.5 84h49q-2 -27 -9 -56.5t-22.5 -54t-39 -41t-60.5 -16.5t-65.5 17.5t-55 39t-51.5 40t-53 18.5q-35 0 -53.5 -31t-24.5 -84h-49z" />
<glyph unicode="&#xe4;" d="M197 240q0 82 44 143t136 105t237.5 74t348.5 48q0 63 -14.5 125t-48.5 108t-93 74.5t-148 28.5q-59 0 -114.5 -13t-105.5 -34.5t-91 -46.5t-69 -45l-33 49q27 20 69.5 46t98 48.5t120 38t130.5 15.5q98 0 166.5 -30t111.5 -81t62.5 -117.5t19.5 -140.5v-635h-53l-8 152 h-5q-43 -35 -93 -67t-103 -56.5t-109.5 -39t-111.5 -14.5q-66 0 -127.5 15.5t-109.5 47.5t-77.5 82t-29.5 120zM262 242q0 -57 24.5 -97.5t64.5 -65t90.5 -35.5t103.5 -11q195 0 418 188v336q-199 -18 -333 -46t-216 -66.5t-117 -89t-35 -113.5zM406 1307q0 31 19.5 52 t49.5 21q31 0 50.5 -21.5t19.5 -51.5q0 -31 -19.5 -52.5t-50.5 -21.5t-50 21.5t-19 52.5zM758 1307q0 31 19.5 52t50.5 21t50 -21.5t19 -51.5q0 -31 -19 -52.5t-50 -21.5t-50.5 21.5t-19.5 52.5z" />
<glyph unicode="&#xe5;" d="M197 240q0 82 44 143t136 105t237.5 74t348.5 48q0 63 -14.5 125t-48.5 108t-93 74.5t-148 28.5q-59 0 -114.5 -13t-105.5 -34.5t-91 -46.5t-69 -45l-33 49q27 20 69.5 46t98 48.5t120 38t130.5 15.5q98 0 166.5 -30t111.5 -81t62.5 -117.5t19.5 -140.5v-635h-53l-8 152 h-5q-43 -35 -93 -67t-103 -56.5t-109.5 -39t-111.5 -14.5q-66 0 -127.5 15.5t-109.5 47.5t-77.5 82t-29.5 120zM262 242q0 -57 24.5 -97.5t64.5 -65t90.5 -35.5t103.5 -11q195 0 418 188v336q-199 -18 -333 -46t-216 -66.5t-117 -89t-35 -113.5zM492 1274q0 78 46 125 t113 47q68 0 114 -47t46 -125t-46 -125t-114 -47t-113.5 47t-45.5 125zM541 1274q0 -59 31.5 -93t78.5 -34t79 33.5t32 93.5q0 59 -31.5 93t-79.5 34q-47 0 -78.5 -34t-31.5 -93z" />
<glyph unicode="&#xe6;" d="M35 250q0 141 138 233t409 127q0 72 -11.5 134.5t-37 107.5t-69.5 70.5t-108 25.5q-33 0 -68.5 -8t-69.5 -22.5t-64.5 -31t-51.5 -32.5l-28 47q45 31 123.5 67t177.5 36q104 0 168.5 -70t87.5 -172q47 111 126 176.5t185 65.5q74 0 128 -35t89 -93.5t52.5 -136 t17.5 -161.5v-39t-4 -52h-580q0 -98 17.5 -181t54.5 -144.5t94 -96t135 -34.5q72 0 128 22.5t100 48.5l26 -45q-45 -29 -106.5 -55.5t-149.5 -26.5q-106 0 -180 55.5t-121 153.5q-86 -98 -176 -153.5t-176 -55.5q-109 0 -182.5 68t-73.5 207zM100 246q0 -106 53.5 -160.5 t143.5 -54.5q72 0 160 53t161 154q-16 55 -26 121.5t-10 140.5v57q-258 -39 -370 -112.5t-112 -198.5zM647 541h520q0 82 -11 155.5t-37.5 129t-70.5 88t-110 32.5q-131 0 -208 -110.5t-83 -294.5z" />
<glyph unicode="&#xe7;" d="M184 487q0 123 42 219.5t114 162t168 100.5t205 35q61 0 112.5 -12.5t94.5 -34t77.5 -49t65.5 -56.5l-41 -45q-63 61 -138 100t-171 39q-102 0 -187.5 -33.5t-147 -94t-95 -145.5t-33.5 -186q0 -102 32.5 -185t94 -143.5t146.5 -93t190 -32.5q104 0 188 41t152 106 l37 -45q-74 -72 -167.5 -116t-209.5 -44q-115 0 -211 35t-167 100.5t-111 160.5t-40 216zM559 -369q86 12 139.5 38t53.5 69q0 49 -40 71.5t-100 38.5l82 156h58l-62 -119q49 -16 86 -47t37 -92q0 -39 -20.5 -67.5t-54.5 -49t-78 -33t-89 -18.5z" />
<glyph unicode="&#xe8;" d="M164 487q0 119 41 215.5t109.5 163t156.5 102.5t180 36q98 0 178 -31t137.5 -89.5t88 -141.5t30.5 -189v-31.5t-4 -34.5h-852q0 -98 33 -181t91.5 -144.5t141.5 -95t185 -33.5t184 30.5t152 79.5l28 -53q-33 -20 -68.5 -40.5t-80.5 -37t-98.5 -27t-120.5 -10.5 q-104 0 -197.5 35t-163 101.5t-110.5 160.5t-41 215zM229 541h795q0 203 -103.5 304t-269.5 101q-78 0 -149.5 -28.5t-129 -81t-95 -127t-48.5 -168.5zM484 1446h81l189 -275h-57z" />
<glyph unicode="&#xe9;" d="M164 487q0 119 41 215.5t109.5 163t156.5 102.5t180 36q98 0 178 -31t137.5 -89.5t88 -141.5t30.5 -189v-31.5t-4 -34.5h-852q0 -98 33 -181t91.5 -144.5t141.5 -95t185 -33.5t184 30.5t152 79.5l28 -53q-33 -20 -68.5 -40.5t-80.5 -37t-98.5 -27t-120.5 -10.5 q-104 0 -197.5 35t-163 101.5t-110.5 160.5t-41 215zM229 541h795q0 203 -103.5 304t-269.5 101q-78 0 -149.5 -28.5t-129 -81t-95 -127t-48.5 -168.5zM541 1171l188 275h82l-213 -275h-57z" />
<glyph unicode="&#xea;" d="M164 487q0 119 41 215.5t109.5 163t156.5 102.5t180 36q98 0 178 -31t137.5 -89.5t88 -141.5t30.5 -189v-31.5t-4 -34.5h-852q0 -98 33 -181t91.5 -144.5t141.5 -95t185 -33.5t184 30.5t152 79.5l28 -53q-33 -20 -68.5 -40.5t-80.5 -37t-98.5 -27t-120.5 -10.5 q-104 0 -197.5 35t-163 101.5t-110.5 160.5t-41 215zM229 541h795q0 203 -103.5 304t-269.5 101q-78 0 -149.5 -28.5t-129 -81t-95 -127t-48.5 -168.5zM426 1171l193 275h57l193 -275h-58l-160 209h-8l-159 -209h-58z" />
<glyph unicode="&#xeb;" d="M164 487q0 119 41 215.5t109.5 163t156.5 102.5t180 36q98 0 178 -31t137.5 -89.5t88 -141.5t30.5 -189v-31.5t-4 -34.5h-852q0 -98 33 -181t91.5 -144.5t141.5 -95t185 -33.5t184 30.5t152 79.5l28 -53q-33 -20 -68.5 -40.5t-80.5 -37t-98.5 -27t-120.5 -10.5 q-104 0 -197.5 35t-163 101.5t-110.5 160.5t-41 215zM229 541h795q0 203 -103.5 304t-269.5 101q-78 0 -149.5 -28.5t-129 -81t-95 -127t-48.5 -168.5zM404 1307q0 31 19.5 52t49.5 21q31 0 50.5 -21.5t19.5 -51.5q0 -31 -19.5 -52.5t-50.5 -21.5t-50 21.5t-19 52.5z M756 1307q0 31 19.5 52t50.5 21t50 -21.5t19 -51.5q0 -31 -19 -52.5t-50 -21.5t-50.5 21.5t-19.5 52.5z" />
<glyph unicode="&#xec;" d="M205 922v57h565v-979h-61v922h-504zM553 1446h81l189 -275h-57z" />
<glyph unicode="&#xed;" d="M205 922v57h565v-979h-61v922h-504zM610 1171l188 275h82l-213 -275h-57z" />
<glyph unicode="&#xee;" d="M205 922v57h565v-979h-61v922h-504zM495 1171l193 275h57l193 -275h-58l-160 209h-8l-159 -209h-58z" />
<glyph unicode="&#xef;" d="M205 922v57h565v-979h-61v922h-504zM471 1307q0 31 19.5 52t49.5 21q31 0 50.5 -21.5t19.5 -51.5q0 -31 -19.5 -52.5t-50.5 -21.5t-50 21.5t-19 52.5zM823 1307q0 31 19.5 52t50.5 21t50 -21.5t19 -51.5q0 -31 -19 -52.5t-50 -21.5t-50.5 21.5t-19.5 52.5z" />
<glyph unicode="&#xf0;" d="M143 446q0 100 34 183.5t95.5 144t150.5 94t200 33.5t208 -54t162 -134q-27 176 -98.5 299t-177.5 215l-307 -162l-25 45l289 152q-63 49 -135 91t-150 81l33 45q86 -41 163 -86t146 -103l273 144l24 -45l-256 -134q137 -127 219 -306t82 -437q0 -123 -32.5 -222.5 t-93 -169t-145.5 -107.5t-188 -38q-92 0 -177 32t-150.5 93.5t-104.5 148.5t-39 197zM209 446q0 -90 31.5 -165.5t87 -131t129 -86t157.5 -30.5q104 0 179 38t123.5 103.5t70 152.5t21.5 185q0 29 -1 56.5t-3 54.5q-86 123 -188.5 172t-197.5 49q-104 0 -181 -33t-128 -88 t-75.5 -127t-24.5 -150z" />
<glyph unicode="&#xf1;" d="M225 0v979h54l8 -197h8q43 47 88 88t92 71t100.5 46.5t112.5 16.5q180 0 268 -95.5t88 -298.5v-610h-61v602q0 174 -69.5 259t-225.5 85q-55 0 -103 -14t-95.5 -44t-96.5 -75t-106 -104v-709h-62zM414 1192q2 27 9 56.5t22.5 54t39 41t60.5 16.5t66.5 -18.5t56 -40 t51 -39t51.5 -17.5q35 0 53.5 31t24.5 84h49q-2 -27 -9 -56.5t-22.5 -54t-39 -41t-60.5 -16.5t-65.5 17.5t-55 39t-51.5 40t-53 18.5q-35 0 -53.5 -31t-24.5 -84h-49z" />
<glyph unicode="&#xf2;" d="M143 487q0 123 38 219.5t102.5 162t149.5 100.5t181 35t181.5 -35t150 -100.5t102 -162t37.5 -219.5q0 -121 -37.5 -216t-102 -160.5t-149.5 -100.5t-182 -35q-96 0 -181 35t-149.5 100.5t-102.5 160.5t-38 216zM209 487q0 -102 30.5 -185t85 -143.5t128 -93t161.5 -32.5 t162 32.5t128 93t85 143.5t31 185q0 100 -31 185.5t-85 146t-128 94t-162 33.5t-161.5 -33.5t-128 -94t-85 -146t-30.5 -185.5zM451 1446h81l189 -275h-57z" />
<glyph unicode="&#xf3;" d="M143 487q0 123 38 219.5t102.5 162t149.5 100.5t181 35t181.5 -35t150 -100.5t102 -162t37.5 -219.5q0 -121 -37.5 -216t-102 -160.5t-149.5 -100.5t-182 -35q-96 0 -181 35t-149.5 100.5t-102.5 160.5t-38 216zM209 487q0 -102 30.5 -185t85 -143.5t128 -93t161.5 -32.5 t162 32.5t128 93t85 143.5t31 185q0 100 -31 185.5t-85 146t-128 94t-162 33.5t-161.5 -33.5t-128 -94t-85 -146t-30.5 -185.5zM508 1171l188 275h82l-213 -275h-57z" />
<glyph unicode="&#xf4;" d="M143 487q0 123 38 219.5t102.5 162t149.5 100.5t181 35t181.5 -35t150 -100.5t102 -162t37.5 -219.5q0 -121 -37.5 -216t-102 -160.5t-149.5 -100.5t-182 -35q-96 0 -181 35t-149.5 100.5t-102.5 160.5t-38 216zM209 487q0 -102 30.5 -185t85 -143.5t128 -93t161.5 -32.5 t162 32.5t128 93t85 143.5t31 185q0 100 -31 185.5t-85 146t-128 94t-162 33.5t-161.5 -33.5t-128 -94t-85 -146t-30.5 -185.5zM393 1171l193 275h57l193 -275h-58l-160 209h-8l-159 -209h-58z" />
<glyph unicode="&#xf5;" d="M143 487q0 123 38 219.5t102.5 162t149.5 100.5t181 35t181.5 -35t150 -100.5t102 -162t37.5 -219.5q0 -121 -37.5 -216t-102 -160.5t-149.5 -100.5t-182 -35q-96 0 -181 35t-149.5 100.5t-102.5 160.5t-38 216zM209 487q0 -102 30.5 -185t85 -143.5t128 -93t161.5 -32.5 t162 32.5t128 93t85 143.5t31 185q0 100 -31 185.5t-85 146t-128 94t-162 33.5t-161.5 -33.5t-128 -94t-85 -146t-30.5 -185.5zM373 1192q2 27 9 56.5t22.5 54t39 41t60.5 16.5t66.5 -18.5t56 -40t51 -39t51.5 -17.5q35 0 53.5 31t24.5 84h49q-2 -27 -9 -56.5t-22.5 -54 t-39 -41t-60.5 -16.5t-65.5 17.5t-55 39t-51.5 40t-53 18.5q-35 0 -53.5 -31t-24.5 -84h-49z" />
<glyph unicode="&#xf6;" d="M143 487q0 123 38 219.5t102.5 162t149.5 100.5t181 35t181.5 -35t150 -100.5t102 -162t37.5 -219.5q0 -121 -37.5 -216t-102 -160.5t-149.5 -100.5t-182 -35q-96 0 -181 35t-149.5 100.5t-102.5 160.5t-38 216zM209 487q0 -102 30.5 -185t85 -143.5t128 -93t161.5 -32.5 t162 32.5t128 93t85 143.5t31 185q0 100 -31 185.5t-85 146t-128 94t-162 33.5t-161.5 -33.5t-128 -94t-85 -146t-30.5 -185.5zM369 1307q0 31 19.5 52t49.5 21q31 0 50.5 -21.5t19.5 -51.5q0 -31 -19.5 -52.5t-50.5 -21.5t-50 21.5t-19 52.5zM721 1307q0 31 19.5 52 t50.5 21t50 -21.5t19 -51.5q0 -31 -19 -52.5t-50 -21.5t-50.5 21.5t-19.5 52.5z" />
<glyph unicode="&#xf7;" d="M201 606v58h827v-58h-827zM549 266q0 31 18.5 50.5t46.5 19.5q29 0 47.5 -19.5t18.5 -50.5q0 -35 -18.5 -54t-47.5 -19t-47 19t-18 54zM549 1004q0 31 18.5 50t46.5 19q29 0 47.5 -19.5t18.5 -49.5q0 -35 -18.5 -54.5t-47.5 -19.5t-47 19.5t-18 54.5z" />
<glyph unicode="&#xf8;" d="M143 -8l121 139q-57 66 -89 155t-32 201q0 123 38 219.5t102.5 162t149.5 100.5t181 35q90 0 169 -30t143 -85l114 131l45 -37l-118 -137q55 -66 86.5 -155t31.5 -204q0 -121 -37.5 -216t-102 -160.5t-149.5 -100.5t-182 -35q-180 0 -309 113l-117 -133zM209 487 q0 -94 25.5 -171.5t72.5 -137.5l576 662q-53 51 -121 78.5t-148 27.5q-88 0 -161.5 -33.5t-128 -94t-85 -145.5t-30.5 -186zM346 135q109 -102 268 -102q88 0 162 32.5t128 93t85 143.5t31 185q0 92 -25.5 171t-70.5 139z" />
<glyph unicode="&#xf9;" d="M184 369v610h62v-602q0 -174 69.5 -259t225.5 -85q55 0 104 14t97.5 44t97.5 74t102 105v709h62v-979h-54l-8 197h-8q-82 -96 -177 -159t-216 -63q-180 0 -268.5 95.5t-88.5 298.5zM441 1446h81l189 -275h-57z" />
<glyph unicode="&#xfa;" d="M184 369v610h62v-602q0 -174 69.5 -259t225.5 -85q55 0 104 14t97.5 44t97.5 74t102 105v709h62v-979h-54l-8 197h-8q-82 -96 -177 -159t-216 -63q-180 0 -268.5 95.5t-88.5 298.5zM498 1171l188 275h82l-213 -275h-57z" />
<glyph unicode="&#xfb;" d="M184 369v610h62v-602q0 -174 69.5 -259t225.5 -85q55 0 104 14t97.5 44t97.5 74t102 105v709h62v-979h-54l-8 197h-8q-82 -96 -177 -159t-216 -63q-180 0 -268.5 95.5t-88.5 298.5zM383 1171l193 275h57l193 -275h-58l-160 209h-8l-159 -209h-58z" />
<glyph unicode="&#xfc;" d="M184 369v610h62v-602q0 -174 69.5 -259t225.5 -85q55 0 104 14t97.5 44t97.5 74t102 105v709h62v-979h-54l-8 197h-8q-82 -96 -177 -159t-216 -63q-180 0 -268.5 95.5t-88.5 298.5zM359 1307q0 31 19.5 52t49.5 21q31 0 50.5 -21.5t19.5 -51.5q0 -31 -19.5 -52.5 t-50.5 -21.5t-50 21.5t-19 52.5zM711 1307q0 31 19.5 52t50.5 21t50 -21.5t19 -51.5q0 -31 -19 -52.5t-50 -21.5t-50.5 21.5t-19.5 52.5z" />
<glyph unicode="&#xfd;" d="M131 979h66l303 -643q29 -61 65.5 -135t73.5 -140h8q31 66 61.5 139.5t57.5 135.5l270 643h62l-471 -1118q-20 -57 -53 -113.5t-80.5 -101.5t-107.5 -73t-136 -28q-29 0 -60.5 5.5t-52.5 15.5l21 57q18 -6 43.5 -11t54.5 -5q59 0 107.5 21.5t88.5 58.5t70.5 88t55.5 110 l36 90zM512 1171l188 275h82l-213 -275h-57z" />
<glyph unicode="&#xfe;" d="M225 -455v1934h62v-459l-4 -197q84 80 183 130.5t198 50.5q211 0 316 -136.5t105 -363.5q0 -125 -37.5 -223.5t-102 -166t-147.5 -103.5t-175 -36q-76 0 -166 38t-170 106v-205v-369h-62zM287 188q92 -86 184 -120.5t156 -34.5q84 0 156.5 34.5t125 97t82 149.5t29.5 190 q0 94 -20.5 175t-63.5 140.5t-111.5 93t-165.5 33.5q-82 0 -178 -47t-194 -145v-566z" />
<glyph unicode="&#xff;" d="M131 979h66l303 -643q29 -61 65.5 -135t73.5 -140h8q31 66 61.5 139.5t57.5 135.5l270 643h62l-471 -1118q-20 -57 -53 -113.5t-80.5 -101.5t-107.5 -73t-136 -28q-29 0 -60.5 5.5t-52.5 15.5l21 57q18 -6 43.5 -11t54.5 -5q59 0 107.5 21.5t88.5 58.5t70.5 88t55.5 110 l36 90zM373 1307q0 31 19.5 52t49.5 21q31 0 50.5 -21.5t19.5 -51.5q0 -31 -19.5 -52.5t-50.5 -21.5t-50 21.5t-19 52.5zM725 1307q0 31 19.5 52t50.5 21t50 -21.5t19 -51.5q0 -31 -19 -52.5t-50 -21.5t-50.5 21.5t-19.5 52.5z" />
<glyph unicode="&#x152;" d="M90 680q0 152 33 275.5t99.5 212.5t164.5 137.5t231 48.5h566v-56h-455v-548h348v-58h-348v-635h475v-57h-583q-133 0 -232.5 50t-165 139.5t-99.5 214t-34 276.5zM158 680q0 -133 26.5 -248t82 -197.5t140.5 -130t203 -47.5h52v1239h-52q-119 0 -203.5 -46t-140 -128 t-82 -194.5t-26.5 -247.5z" />
<glyph unicode="&#x153;" d="M20 489q0 123 26 218.5t72 161t109.5 100.5t139.5 35q102 0 180 -75t121 -216q43 135 111.5 213t183.5 78q68 0 116.5 -35t82.5 -93.5t50.5 -135t16.5 -162.5v-39t-4 -52h-523q0 -98 16.5 -181t51.5 -144.5t88 -96t125 -34.5q59 0 104.5 21.5t88.5 49.5l24 -45 q-41 -29 -91 -55.5t-128 -26.5q-111 0 -190.5 73t-122.5 214q-43 -141 -121 -214t-178 -73q-76 0 -140.5 35t-110.5 100.5t-72 160.5t-26 218zM86 489q0 -102 18.5 -186t54.5 -145.5t87 -95t119 -33.5q61 0 111 33.5t87 95t56.5 145.5t19.5 186q0 100 -19.5 185.5t-56.5 146 t-87 94t-111 33.5q-68 0 -119 -33.5t-87 -94t-54.5 -146t-18.5 -185.5zM702 541h465q0 80 -10 153.5t-34.5 129t-64.5 89t-100 33.5q-61 0 -106 -29.5t-76 -83t-49 -128t-25 -164.5z" />
<glyph unicode="&#x178;" d="M115 1352h65l254 -463q47 -78 90 -158t90 -162h9q49 82 94 162l90 160l246 461h61l-467 -850v-502h-65v502zM393 1556q0 31 18.5 48.5t47.5 17.5t47 -17.5t18 -48.5t-18 -48t-47 -17t-47.5 17.5t-18.5 47.5zM705 1556q0 31 18 48.5t47 17.5t47.5 -17.5t18.5 -48.5 t-18.5 -48t-47.5 -17t-47 17.5t-18 47.5z" />
<glyph unicode="&#x2c6;" d="M393 1171l193 275h57l193 -275h-58l-160 209h-8l-159 -209h-58z" />
<glyph unicode="&#x2dc;" d="M373 1192q2 27 9 56.5t22.5 54t39 41t60.5 16.5t66.5 -18.5t56 -40t51 -39t51.5 -17.5q35 0 53.5 31t24.5 84h49q-2 -27 -9 -56.5t-22.5 -54t-39 -41t-60.5 -16.5t-65.5 17.5t-55 39t-51.5 40t-53 18.5q-35 0 -53.5 -31t-24.5 -84h-49z" />
<glyph unicode="&#x2000;" horiz-adv-x="880" />
<glyph unicode="&#x2001;" horiz-adv-x="1761" />
<glyph unicode="&#x2002;" horiz-adv-x="880" />
<glyph unicode="&#x2003;" horiz-adv-x="1761" />
<glyph unicode="&#x2004;" horiz-adv-x="587" />
<glyph unicode="&#x2005;" horiz-adv-x="440" />
<glyph unicode="&#x2006;" horiz-adv-x="293" />
<glyph unicode="&#x2007;" horiz-adv-x="293" />
<glyph unicode="&#x2008;" horiz-adv-x="220" />
<glyph unicode="&#x2009;" horiz-adv-x="352" />
<glyph unicode="&#x200a;" horiz-adv-x="97" />
<glyph unicode="&#x2010;" d="M291 557v82h647v-82h-647z" />
<glyph unicode="&#x2011;" d="M291 557v82h647v-82h-647z" />
<glyph unicode="&#x2012;" d="M291 557v82h647v-82h-647z" />
<glyph unicode="&#x2013;" d="M164 557v82h901v-82h-901z" />
<glyph unicode="&#x2014;" d="M41 557v82h1147v-82h-1147z" />
<glyph unicode="&#x2018;" d="M471 997q0 143 68.5 259t173.5 178l37 -50q-88 -61 -141.5 -152t-59.5 -208q35 25 65 25q49 0 80 -33t31 -82q0 -51 -31.5 -85t-83.5 -34q-53 0 -96 48t-43 134z" />
<glyph unicode="&#x2019;" d="M471 864q88 61 141.5 152.5t59.5 208.5q-35 -25 -66 -25q-49 0 -79.5 33t-30.5 82q0 51 31.5 85t82.5 34q53 0 96.5 -48.5t43.5 -134.5q0 -143 -69 -258.5t-173 -177.5z" />
<glyph unicode="&#x201a;" d="M471 -404q88 61 141.5 152.5t59.5 208.5q-35 -25 -66 -25q-49 0 -79.5 33t-30.5 82q0 51 31.5 85t82.5 34q53 0 96.5 -48.5t43.5 -134.5q0 -143 -69 -258.5t-173 -177.5z" />
<glyph unicode="&#x201c;" d="M268 997q0 143 68.5 259t173.5 178l37 -50q-88 -61 -141.5 -152t-59.5 -208q35 25 65 25q49 0 80 -33t31 -82q0 -51 -31.5 -85t-83.5 -34q-53 0 -96 48t-43 134zM676 997q0 143 68.5 259t173.5 178l37 -50q-88 -61 -141.5 -152t-59.5 -208q35 25 65 25q49 0 80 -33 t31 -82q0 -51 -31.5 -85t-83.5 -34q-53 0 -96 48t-43 134z" />
<glyph unicode="&#x201d;" d="M268 864q88 61 141.5 152.5t59.5 208.5q-35 -25 -66 -25q-49 0 -79.5 33t-30.5 82q0 51 31.5 85t82.5 34q53 0 96.5 -48.5t43.5 -134.5q0 -143 -69 -258.5t-173 -177.5zM676 864q88 61 141.5 152.5t59.5 208.5q-35 -25 -66 -25q-49 0 -79.5 33t-30.5 82q0 51 31.5 85 t82.5 34q53 0 96.5 -48.5t43.5 -134.5q0 -143 -69 -258.5t-173 -177.5z" />
<glyph unicode="&#x201e;" d="M268 -404q88 61 141.5 152.5t59.5 208.5q-35 -25 -66 -25q-49 0 -79.5 33t-30.5 82q0 51 31.5 85t82.5 34q53 0 96.5 -48.5t43.5 -134.5q0 -143 -69 -258.5t-173 -177.5zM676 -404q88 61 141.5 152.5t59.5 208.5q-35 -25 -66 -25q-49 0 -79.5 33t-30.5 82q0 51 31.5 85 t82.5 34q53 0 96.5 -48.5t43.5 -134.5q0 -143 -69 -258.5t-173 -177.5z" />
<glyph unicode="&#x2022;" d="M336 623q0 63 23.5 115.5t63.5 88t89 55t102 19.5q51 0 101.5 -19.5t90.5 -55t63.5 -88t23.5 -115.5q0 -66 -23.5 -117t-63.5 -87t-90.5 -55.5t-101.5 -19.5q-53 0 -102 19.5t-89 55.5t-63.5 87t-23.5 117z" />
<glyph unicode="&#x2026;" d="M119 94q0 59 33.5 90t72.5 31t73 -30.5t34 -90.5q0 -55 -34 -87t-73 -32t-72.5 32t-33.5 87zM508 94q0 59 33.5 90t72.5 31t73 -30.5t34 -90.5q0 -55 -34 -87t-73 -32t-72.5 32t-33.5 87zM897 94q0 59 34 90t73 31t72.5 -30.5t33.5 -90.5q0 -55 -34 -87t-72 -32 q-39 0 -73 32t-34 87z" />
<glyph unicode="&#x202f;" horiz-adv-x="352" />
<glyph unicode="&#x2039;" d="M440 487v58l283 336l41 -37l-258 -328l258 -332l-41 -32z" />
<glyph unicode="&#x203a;" d="M465 184l258 332l-258 328l41 37l282 -336v-58l-282 -335z" />
<glyph unicode="&#x205f;" horiz-adv-x="440" />
<glyph unicode="&#x20ac;" d="M139 512v49l131 8q-2 23 -3 45.5t-1 44.5v37t2 37h-129v49l135 9q14 127 55.5 227t108 171t154.5 108.5t194 37.5q104 0 189.5 -49t134.5 -110l-45 -41q-55 66 -124 104.5t-155 38.5q-190 0 -303.5 -130t-138.5 -357h668v-58h-674q-2 -18 -2 -36.5v-37.5q0 -23 1 -45 t3 -45h590v-57h-586q14 -111 48 -199t86 -150.5t123 -96t157 -33.5q102 0 179 43t148 129l45 -37q-72 -90 -159.5 -141.5t-216.5 -51.5q-96 0 -178 38t-143.5 107.5t-102.5 169t-56 222.5h-135z" />
<glyph unicode="&#x2122;" d="M4 1327v57h512v-57h-225v-569h-62v569h-225zM627 758v626h90l110 -266l66 -180h8l66 180l106 266h90v-626h-61v348l8 197h-8l-176 -447h-62l-176 447h-8l8 -197v-348h-61z" />
<glyph unicode="&#x25fc;" horiz-adv-x="983" d="M0 0v983h983v-983h-983z" />
<glyph unicode="&#xfb01;" d="M180 922v49l135 8v242q0 145 60.5 213.5t165.5 68.5q63 0 135 -33l-21 -53q-31 16 -60.5 22.5t-57.5 6.5q-84 0 -122 -61.5t-38 -172.5v-233h233v-57h-233v-922h-62v922h-135zM809 1313q0 41 24.5 63.5t57.5 22.5t57.5 -22.5t24.5 -63.5q0 -39 -24.5 -61.5t-57.5 -22.5 t-57.5 22.5t-24.5 61.5zM860 0v979h62v-979h-62z" />
<glyph unicode="&#xfb02;" d="M190 922v49l136 8v242q0 145 60 213.5t165 68.5q63 0 135 -33l-20 -53q-31 16 -61 22.5t-58 6.5q-84 0 -122 -61.5t-38 -172.5v-233h234v-57h-234v-922h-61v922h-136zM834 106v1373h61v-1385q0 -61 41 -61h13t24 4l12 -53q-12 -4 -23.5 -6.5t-29.5 -2.5q-47 0 -72.5 30 t-25.5 101z" />
</font>
</defs>
</svg>
