<?xml version="1.0" encoding="UTF-8" standalone="no"?>
<!-- Created with Inkscape (http://www.inkscape.org/) -->

<svg
   xmlns:dc="http://purl.org/dc/elements/1.1/"
   xmlns:cc="http://creativecommons.org/ns#"
   xmlns:rdf="http://www.w3.org/1999/02/22-rdf-syntax-ns#"
   xmlns:svg="http://www.w3.org/2000/svg"
   xmlns="http://www.w3.org/2000/svg"
   xmlns:sodipodi="http://sodipodi.sourceforge.net/DTD/sodipodi-0.dtd"
   xmlns:inkscape="http://www.inkscape.org/namespaces/inkscape"
   width="24"
   height="24"
   id="svg3124"
   version="1.1"
   inkscape:version="0.48.4 r9939"
   sodipodi:docname="shopify.svg">
  <defs
     id="defs3126" />
  <sodipodi:namedview
     id="base"
     pagecolor="#ffffff"
     bordercolor="#666666"
     borderopacity="1.0"
     inkscape:pageopacity="0.0"
     inkscape:pageshadow="2"
     inkscape:zoom="7"
     inkscape:cx="-18.538467"
     inkscape:cy="11.461865"
     inkscape:current-layer="layer1"
     showgrid="true"
     inkscape:grid-bbox="true"
     inkscape:document-units="px"
     fit-margin-top="0"
     fit-margin-left="0"
     fit-margin-right="0"
     fit-margin-bottom="0"
     inkscape:window-width="1366"
     inkscape:window-height="744"
     inkscape:window-x="0"
     inkscape:window-y="24"
     inkscape:window-maximized="1" />
  <metadata
     id="metadata3129">
    <rdf:RDF>
      <cc:Work
         rdf:about="">
        <dc:format>image/svg+xml</dc:format>
        <dc:type
           rdf:resource="http://purl.org/dc/dcmitype/StillImage" />
        <dc:title></dc:title>
      </cc:Work>
    </rdf:RDF>
  </metadata>
  <g
     id="layer1"
     inkscape:label="Layer 1"
     inkscape:groupmode="layer"
     transform="translate(-17.39561,-11.461866)">
    <g
       id="g12"
       transform="matrix(0.125,0,0,-0.125,-223.05082,214.04423)"
       style="fill:#555555;fill-opacity:1">
      <path
         inkscape:connector-curvature="0"
         style="fill:#555555;fill-opacity:1;fill-rule:nonzero;stroke:none"
         id="path30"
         d="m 2027.9791,1590.6999 c -0.01,0.7396 -0.021,1.4823 -0.055,2.2464 -0.2191,5.8503 -1.0136,10.7815 -2.3621,14.769 1.4642,-0.1461 2.8096,-0.6332 4.0302,-1.4946 3.4061,-2.4108 5.8595,-7.2627 7.5793,-12.6718 l -9.1926,-2.849 z m -11.7738,-60.2998 c -0.8584,0.4201 -1.8781,0.8645 -3.0287,1.2906 -1.1384,0.4231 -2.4077,0.828 -3.7866,1.1628 -1.3637,0.3348 -2.8309,0.6057 -4.3802,0.7671 -1.528,0.1552 -3.1383,0.2069 -4.8033,0.1126 -1.5311,-0.097 -2.9221,-0.3653 -4.1397,-0.8006 -1.2084,-0.4322 -2.2586,-1.0258 -3.1261,-1.7624 -0.8614,-0.7336 -1.5432,-1.6133 -2.0211,-2.6238 -0.481,-1.0076 -0.761,-2.1429 -0.8097,-3.4031 -0.046,-0.9284 0.1004,-1.8233 0.4292,-2.6908 0.3287,-0.8706 0.8371,-1.729 1.5372,-2.5752 0.7031,-0.8462 1.5919,-1.7015 2.6695,-2.5629 1.0836,-0.8706 2.3651,-1.7594 3.8414,-2.6848 2.0729,-1.3241 4.1884,-2.8217 6.2004,-4.5354 2.0425,-1.7441 3.9723,-3.7105 5.6373,-5.9447 1.6742,-2.2647 3.0774,-4.8003 4.021,-7.6433 0.9467,-2.8643 1.4306,-6.0299 1.2754,-9.5122 -0.2466,-5.6982 -1.4915,-10.608 -3.5614,-14.6838 -2.0394,-4.021 -4.852,-7.1836 -8.2429,-9.4696 -3.3148,-2.2403 -7.1531,-3.6344 -11.3324,-4.1884 -4.0575,-0.5448 -8.4042,-0.3013 -12.891,0.688 -0.037,0.01 -0.07,0.015 -0.1065,0.024 -0.036,0.01 -0.073,0.015 -0.1035,0.021 -0.036,0.01 -0.073,0.018 -0.1096,0.024 -0.036,0.012 -0.07,0.015 -0.1065,0.024 -2.1003,0.5144 -4.1336,1.1719 -6.0391,1.9451 -1.8781,0.7579 -3.6436,1.6254 -5.2477,2.5599 -1.5859,0.9223 -3.0226,1.9146 -4.2615,2.9374 -1.2297,1.0105 -2.2738,2.0607 -3.0895,3.1108 l 4.9463,16.4249 c 0.831,-0.7031 1.8568,-1.5097 3.0165,-2.3225 1.178,-0.8309 2.496,-1.6771 3.9114,-2.4686 1.4307,-0.7975 2.9587,-1.5402 4.5355,-2.1429 1.5889,-0.6088 3.2295,-1.0806 4.8519,-1.3119 1.4368,-0.2161 2.7213,-0.1735 3.8415,0.079 1.1323,0.2527 2.0972,0.7245 2.8825,1.3637 0.7945,0.6423 1.4124,1.458 1.8385,2.3895 0.4292,0.9405 0.6788,1.9937 0.7245,3.123 0.049,1.1324 -0.058,2.1977 -0.3379,3.2296 -0.2891,1.0319 -0.7488,2.0364 -1.4154,3.0378 -0.6666,0.9984 -1.5311,1.9999 -2.6238,3.0318 -1.0837,1.0349 -2.3804,2.0881 -3.9206,3.2143 -1.8872,1.4093 -3.6648,2.9374 -5.2538,4.6024 -1.5706,1.6407 -2.9647,3.4183 -4.1062,5.3512 -1.1262,1.9085 -2.0151,3.9784 -2.5934,6.2248 -0.5723,2.2342 -0.834,4.6571 -0.7244,7.2932 0.1948,4.4045 1.0745,8.4712 2.5477,12.1238 1.4915,3.6953 3.6009,7.0162 6.2491,9.8714 2.703,2.91 5.9874,5.3634 9.7679,7.2567 3.8962,1.945 8.3464,3.3118 13.2836,3.9571 2.286,0.3013 4.4837,0.4352 6.5596,0.4474 2.1095,0.01 4.088,-0.1126 5.9143,-0.347 1.8507,-0.2344 3.534,-0.5814 5.0255,-1.0014 1.5007,-0.4231 2.8065,-0.9284 3.881,-1.4794 l -7.2262,-21.5356 z m -10.538,82.0576 c 3.9784,1.4428 7.0314,1.3758 9.3326,-0.1766 -12.27,-5.5977 -17.6303,-19.691 -19.9406,-31.7722 l -15.0552,-4.6633 c 3.3605,12.1574 10.8637,31.2365 25.6632,36.6121 z m 15.7948,-23.7729 -18.8022,-5.826 c 2.493,9.7648 7.281,19.7305 16.431,23.6207 1.9024,-4.9799 2.426,-11.7921 2.3712,-17.7947 z m 27.5352,8.5229 -5.8382,-1.805 c -2.5356,7.488 -5.9996,12.8179 -10.3493,15.8953 -3.2205,2.2829 -6.7575,3.2691 -10.5715,2.9738 -0.7945,1.0563 -1.6711,1.9755 -2.6269,2.7517 -4.2219,3.4092 -9.6644,3.9388 -16.1753,1.5798 -19.5266,-7.0923 -27.8182,-32.3993 -30.8043,-45.0406 l -17.0154,-5.2721 c 0,0 -4.0119,-1.1353 -4.9525,-2.2677 -1.0319,-1.2328 -1.2327,-4.575 -1.2327,-4.575 L 1935,1450.108 l 108.363,-20.3025 8.3433,167.4996 c -1.1932,0.2314 -2.4138,-0.024 -2.709,-0.097" />
      <path
         inkscape:connector-curvature="0"
         style="fill:#555555;fill-opacity:1;fill-rule:nonzero;stroke:none"
         id="path32"
         d="m 2083.9261,1582.8161 c 0,0 -0.1583,0.8584 -0.6393,1.1689 -0.487,0.3105 -1.0166,0.3714 -1.0166,0.3714 l -15.2956,1.1384 -11.2564,11.1894 c -0.4201,0.3257 -0.9132,0.5144 -1.4185,0.6148 l -8.3463,-167.4972 58.7169,12.7086 -20.7442,140.3057" />
    </g>
  </g>
</svg>
