<svg xmlns="http://www.w3.org/2000/svg" viewBox="0 0 512 512" enable-background="new 0 0 512 512"><path d="M78.2 445.7c2.9 0 5.7-1.2 7.8-3.3l166.2-166.2 2.8-2.8 2.1-2.1 2.1 2.1 3.2 3.2 166.2 166.2c2 2 4.7 3.1 7.5 3.1 3 0 5.9-1.2 7.9-3.3 4.3-4.3 4.3-11.4.2-15.5l-166-166.2-3.2-3.2-2.1-2.1 2.1-2.1 2.8-2.8 166.2-166.3c4.3-4.3 4.4-10.9.3-15-1.9-1.9-4.5-3-7.2-3-2.9 0-5.6 1.2-7.8 3.3l-166.2 166.2-2.8 2.8-2.1 2.1-2.1-2.1-3.3-3.3-166.3-166.2c-2-2-4.7-3.1-7.5-3.1-3 0-5.9 1.2-7.9 3.3-4.3 4.3-4.3 11.4-.2 15.5l166.1 166.2 3.3 3.3 2.1 2.1-2.1 2.1-2.8 2.8-166.2 166.3c-4.3 4.3-4.4 10.9-.3 15 1.9 2 4.5 3 7.2 3z"/><path fill="#D81D4E" d="M288.7 315.6"/></svg>