<?xml version="1.0" encoding="utf-8"?>
<!-- Generator: Adobe Illustrator 17.1.0, SVG Export Plug-In . SVG Version: 6.00 Build 0)  -->
<!DOCTYPE svg PUBLIC "-//W3C//DTD SVG 1.1//EN" "http://www.w3.org/Graphics/SVG/1.1/DTD/svg11.dtd">
<svg version="1.1" id="Layer_1" xmlns="http://www.w3.org/2000/svg" xmlns:xlink="http://www.w3.org/1999/xlink" x="0px" y="0px"
	 viewBox="0 0 512 512" enable-background="new 0 0 512 512" xml:space="preserve">
<path fill="#D81D4E" d="M78.2,445.7c2.9,0,5.7-1.2,7.8-3.3l166.2-166.2l2.8-2.8l2.1-2.1l2.1,2.1l3.2,3.2l166.2,166.2c2,2,4.7,3.1,7.5,3.1
	c3,0,5.9-1.2,7.9-3.3c4.3-4.3,4.3-11.4,0.2-15.5L278.2,260.9l-3.2-3.2l-2.1-2.1l2.1-2.1l2.8-2.8L444,84.4c4.3-4.3,4.4-10.9,0.3-15
	c-1.9-1.9-4.5-3-7.2-3c-2.9,0-5.6,1.2-7.8,3.3L263.1,235.9l-2.8,2.8l-2.1,2.1l-2.1-2.1l-3.3-3.3L86.5,69.2c-2-2-4.7-3.1-7.5-3.1
	c-3,0-5.9,1.2-7.9,3.3c-4.3,4.3-4.3,11.4-0.2,15.5L237,251.1l3.3,3.3l2.1,2.1l-2.1,2.1l-2.8,2.8L71.3,427.7
	c-4.3,4.3-4.4,10.9-0.3,15C72.9,444.7,75.5,445.7,78.2,445.7z"/>
<path fill="#D81D4E" d="M288.7,315.6"/>
</svg>
