<svg xmlns="http://www.w3.org/2000/svg" viewBox="0 0 512 512" enable-background="new 0 0 512 512"><path d="M447 335c0-4.4-3.6-8.4-8-8.4s-8 4.1-8 8.5v.8h-1v83.3l-120.7-121.1h.2c-1.4-1.2-3.1-1.9-5.1-1.9-4.4 0-7.9 3.6-7.9 8 0 2 .8 3.8 2 5.2v-.3l121.2 120.9h-83.7v.7h-.8c-4.4 0-8.3 3.6-8.3 8s4 8 8.4 8h.7v.4h111v-112.1zM176.2 446.9c4.4 0 8.4-3.6 8.4-8s-4.2-8-8.7-8h-.9v-.9h-83l121.2-120.8v.2c1.2-1.4 1.9-3.1 1.9-5.1 0-4.4-3.6-7.9-8-7.9-2 0-3.8.8-5.2 2h.1l-121 121.1v-83.5h-.3v-.9c0-4.4-3.6-8.3-8-8.3s-8 4-8 8.5v.7h-.7v111h111v-.2c2 0 1.1.1 1.2.1zM64 176.1c0 4.4 3.6 8.4 8 8.4s8-4.2 8-8.6v-.9h1v-83.1l120.7 121.2h-.2c1.4 1.2 3.1 1.9 5.1 1.9 4.4 0 7.9-3.6 7.9-8 0-2-.8-3.8-2-5.2v.2l-121.2-121h83.7v-.5h.8c4.4 0 8.3-3.6 8.3-8s-4-8-8.4-8h-.7v-.5h-111v112.1zM334.8 64.3c-4.4 0-8.4 3.6-8.4 8s4.2 8 8.7 8h.9v.7h83l-121.2 120.9v-.1c-1.2 1.4-1.9 3.1-1.9 5.1 0 4.4 3.6 8 8 8 2 0 3.8-.8 5.2-2h-.1l121-121.2v83.3h.3v1c0 4.4 3.6 8.4 8 8.4s8-4.1 8-8.5v-.8h.7v-111.1h-111v.3h-1.2z"/></svg>