<?xml version="1.0" encoding="utf-8"?>
<!-- Generator: Adobe Illustrator 17.1.0, SVG Export Plug-In . SVG Version: 6.00 Build 0)  -->
<!DOCTYPE svg PUBLIC "-//W3C//DTD SVG 1.1//EN" "http://www.w3.org/Graphics/SVG/1.1/DTD/svg11.dtd">
<svg version="1.1" id="Layer_1" xmlns="http://www.w3.org/2000/svg" xmlns:xlink="http://www.w3.org/1999/xlink" x="0px" y="0px"
	 viewBox="0 0 512 512" enable-background="new 0 0 512 512" xml:space="preserve">
<g>
	<polygon points="305.3,65.3 182.3,440.4 203,446.7 326,71.6 	"/>
	<g>
		<path d="M145.8,364.9l0-0.2c-0.2-1.1-0.7-2.1-1.5-2.9L42.6,256.1l-1.7-1.8l1.7-1.8l100.8-104.7l0.9-1c0.6-0.6,1-1.5,1.3-2.4l0-0.2
			l0.1-0.1c0.5-1.2,0.7-2.5,0.7-3.9c0-6-4.9-10.9-10.9-10.9c-1.7,0-3.4,0.4-4.9,1.2l-0.1,0.1l-0.1,0c-0.8,0.3-1.4,0.7-2,1.3
			L17.7,246.8l-1,1c-0.6,0.7-1.1,1.5-1.3,2.5l0,0.2l-0.1,0.2c-0.4,1.2-0.6,2.4-0.6,3.7c0,1.1,0.2,2.2,0.5,3.3l0.1,0.2l0,0.2
			c0.2,1.1,0.7,2.1,1.5,2.9L127.6,376l0.7,0.7c0.5,0.5,1.1,0.9,1.7,1.2l0.1,0l0.1,0.1c1.6,0.8,3.3,1.3,5.1,1.3
			c6,0,10.9-4.9,10.9-10.9c0-1.1-0.2-2.2-0.5-3.3L145.8,364.9z"/>
	</g>
	<g>
		<path d="M366.2,143.8l0,0.2c0.2,1.1,0.7,2.1,1.5,2.9l101.8,105.7l1.7,1.8l-1.7,1.8L368.6,360.8l-0.9,1c-0.6,0.6-1,1.5-1.3,2.4
			l0,0.2l-0.1,0.1c-0.5,1.2-0.7,2.5-0.7,3.9c0,6,4.9,10.9,10.9,10.9c1.7,0,3.4-0.4,4.9-1.2l0.1-0.1l0.1,0c0.8-0.3,1.4-0.7,2-1.3
			l110.5-114.8l1-1c0.6-0.7,1.1-1.5,1.3-2.5l0-0.2l0.1-0.2c0.4-1.2,0.6-2.4,0.6-3.7c0-1.1-0.2-2.2-0.5-3.3l-0.1-0.2l0-0.2
			c-0.2-1.1-0.7-2.1-1.5-2.9L384.4,132.7l-0.7-0.7c-0.5-0.5-1.1-0.9-1.7-1.2l-0.1,0l-0.1-0.1c-1.6-0.8-3.3-1.3-5.1-1.3
			c-6,0-10.9,4.9-10.9,10.9c0,1.1,0.2,2.2,0.5,3.3L366.2,143.8z"/>
	</g>
</g>
</svg>
