<svg fill="#929292" xmlns="http://www.w3.org/2000/svg" viewBox="0 0 512 512" enable-background="new 0 0 512 512"><path d="M305.3 65.3l-123 375.1 20.7 6.3 123-375.1zM145.8 364.9v-.2c-.2-1.1-.7-2.1-1.5-2.9l-101.7-105.7-1.7-1.8 1.7-1.8 100.8-104.7.9-1c.6-.6 1-1.5 1.3-2.4v-.2l.1-.1c.5-1.2.7-2.5.7-3.9 0-6-4.9-10.9-10.9-10.9-1.7 0-3.4.4-4.9 1.2l-.1.1h-.1c-.8.3-1.4.7-2 1.3l-110.7 114.9-1 1c-.6.7-1.1 1.5-1.3 2.5v.2l-.1.2c-.4 1.2-.6 2.4-.6 3.7 0 1.1.2 2.2.5 3.3l.1.2v.2c.2 1.1.7 2.1 1.5 2.9l110.8 115 .7.7c.5.5 1.1.9 1.7 1.2h.1l.1.1c1.6.8 3.3 1.3 5.1 1.3 6 0 10.9-4.9 10.9-10.9 0-1.1-.2-2.2-.5-3.3l.1-.2zM366.2 143.8v.2c.2 1.1.7 2.1 1.5 2.9l101.8 105.7 1.7 1.8-1.7 1.8-100.9 104.6-.9 1c-.6.6-1 1.5-1.3 2.4v.2l-.1.1c-.5 1.2-.7 2.5-.7 3.9 0 6 4.9 10.9 10.9 10.9 1.7 0 3.4-.4 4.9-1.2l.1-.1h.1c.8-.3 1.4-.7 2-1.3l110.5-114.8 1-1c.6-.7 1.1-1.5 1.3-2.5v-.2l.1-.2c.4-1.2.6-2.4.6-3.7 0-1.1-.2-2.2-.5-3.3l-.1-.2v-.2c-.2-1.1-.7-2.1-1.5-2.9l-110.6-115-.7-.7c-.5-.5-1.1-.9-1.7-1.2h-.1l-.1-.1c-1.6-.8-3.3-1.3-5.1-1.3-6 0-10.9 4.9-10.9 10.9 0 1.1.2 2.2.5 3.3l-.1.2z"/></svg>
