<?xml version="1.0" encoding="utf-8"?>
<!-- Generator: Adobe Illustrator 17.1.0, SVG Export Plug-In . SVG Version: 6.00 Build 0)  -->
<!DOCTYPE svg PUBLIC "-//W3C//DTD SVG 1.1//EN" "http://www.w3.org/Graphics/SVG/1.1/DTD/svg11.dtd">
<svg version="1.1" id="Layer_1" xmlns="http://www.w3.org/2000/svg" xmlns:xlink="http://www.w3.org/1999/xlink" x="0px" y="0px"
	 viewBox="0 0 512 512" enable-background="new 0 0 512 512" xml:space="preserve">
<path d="M353,195v-33.9c0-52.9-44.1-95.9-97-95.9s-97,43-97,95.9V195h-42v219.2c0,17,13.6,30.8,30.3,30.8h217.5
	c17,0,30.2-13.8,30.2-30.8V195H353z M180,195v-33.9c0-44.4,34.2-80.4,77-80.4s77,36.1,77,80.4V195H180z M377,414.2
	c0,6.8-5.4,11.8-12.2,11.8H147.3c-6.7,0-12.3-4.8-12.3-11.8V214h242V414.2z"/>
</svg>
