<?xml version="1.0" encoding="utf-8"?>
<!-- Generator: Adobe Illustrator 17.1.0, SVG Export Plug-In . SVG Version: 6.00 Build 0)  -->
<!DOCTYPE svg PUBLIC "-//W3C//DTD SVG 1.1//EN" "http://www.w3.org/Graphics/SVG/1.1/DTD/svg11.dtd">
<svg version="1.1" id="Layer_1" xmlns="http://www.w3.org/2000/svg" xmlns:xlink="http://www.w3.org/1999/xlink" x="0px" y="0px"
	 viewBox="0 0 512 512" enable-background="new 0 0 512 512" xml:space="preserve">
<g>
	<path d="M308.1,165.5c0,0,3.3,33.8-18.3,52.1c-8.7-5.5-19.6-8.6-32.5-8.6c-11.9,0-23.6,3.4-33.7,9.7
		c-23.1-18.1-19.6-53.2-19.6-53.2c-25.6,49.9,1.3,69.4,1.9,69.9c-7.1,10.2-11.5,23.1-11.5,38.2c0,40.5,29.7,64.4,66.7,64.4
		c18.9,0,35-6.3,47.8-14.3l-8.8-15.8c-11.1,6.5-22.4,10.6-35.7,10.6c-24.7,0-42.8-14.3-44.3-38.5h92.6c0.5-3,1.3-7.8,1.3-12.8
		c0-12.1-2.6-22.9-7.6-31.8C308.8,233.5,332.7,213.5,308.1,165.5z M219.8,262.8c3.3-21.9,19.6-34.2,38-34.2c21.1,0,33,12.3,33,34.2
		H219.8z"/>
	<path d="M256,448c-105.9,0-192-86.1-192-192c0-105.9,86.1-192,192-192c105.9,0,192,86.1,192,192C448,361.9,361.9,448,256,448z
		 M256,88.9c-92.2,0-167.1,75-167.1,167.1c0,92.2,75,167.1,167.1,167.1c92.2,0,167.1-75,167.1-167.1
		C423.1,163.8,348.2,88.9,256,88.9z"/>
</g>
</svg>
