<svg xmlns="http://www.w3.org/2000/svg" viewBox="0 0 158.2 23.1" enable-background="new 0 0 158.2 23.1"><path fill="#58595B" d="M136.9 20.5c.6 0 1.2.4 1.2 1.3s-.6 1.3-1.2 1.3-1.2-.4-1.2-1.3c.1-.9.6-1.3 1.2-1.3zM138.3 12.1h6.2v10.7h-.7v-10.1h-5.5v-.6zm4.7-3.7c0-.6.4-.9.9-.9s.9.4.9.9-.4.9-.9.9-.9-.3-.9-.9zM153 11.8c2.8 0 5.2 2.1 5.2 5.7s-2.4 5.6-5.2 5.6c-2.8 0-5.2-2.1-5.2-5.6.1-3.6 2.4-5.7 5.2-5.7zm0 10.6c2.6 0 4.5-2 4.5-5s-1.9-5-4.5-5-4.5 2.1-4.5 5 2 5 4.5 5z"/><g fill="#58595B"><path d="M22.9 14.7l-5.3-7.4h3.4l2.2 3.1 1.7 2.6h.1l1.6-2.6 2-3.1h3.4l-5.3 7.7 5.7 7.7h-3.4l-2.4-3.3-1.9-2.8h-.1c-.6.9-1.2 1.8-1.8 2.8l-2.3 3.3h-3.3l5.7-8zM42 7c4.5 0 7.1 3 7.1 7.2 0 .6-.1 1.2-.2 1.6h-11.5c.2 3 2.4 4.8 5.5 4.8 1.7 0 3.1-.5 4.5-1.3l1.1 2c-1.6 1-3.6 1.8-6 1.8-4.6 0-8.3-3-8.3-8 0-5.1 3.8-8.1 7.8-8.1zm4.2 6.7c0-2.7-1.5-4.3-4.1-4.3-2.3 0-4.3 1.5-4.7 4.3h8.8zM52.7 7.3h2.6l.3 3.6h.1c1.6-2.5 4-4 6.7-4 1.2 0 2.1.2 3 .6l-.7 2.7c-1-.3-1.6-.5-2.8-.5-2.2 0-4.3 1.1-6 4.2v8.7h-3.1v-15.3zM75.6 7c2.5 0 4.4 1 5.6 2.2l-1.5 2c-1.2-1-2.5-1.6-4-1.6-3.3 0-5.6 2.2-5.6 5.5s2.2 5.5 5.5 5.5c1.9 0 3.4-.8 4.6-1.8l1.3 2c-1.7 1.5-3.9 2.4-6.2 2.4-4.8 0-8.4-2.9-8.4-8 .1-5.3 4-8.2 8.7-8.2zM83.5 7.3h10v15.3h-3.1v-12.7h-6.9v-2.6zm5.8-5.1c0-1.3 1-2.2 2.3-2.2 1.4 0 2.4.9 2.4 2.2 0 1.3-1 2.2-2.3 2.2-1.3 0-2.4-.8-2.4-2.2zM98.5 18.7c1.7 1.2 3.6 2 6.1 2 2.6 0 3.8-.9 3.8-2.1 0-1.1-1.3-1.9-4.7-2.7-3-.8-5.7-2.2-5.7-4.4 0-2.6 2.3-4.5 6.6-4.5 2.4 0 4.7 1 6.3 2l-1.4 1.9c-1.4-.9-3-1.6-4.8-1.6-2.6 0-3.5.8-3.5 1.9 0 1.2 1.9 1.9 4.5 2.5 3.8 1 6 2.2 6 4.6 0 2.6-2.5 4.7-7 4.7-2.9 0-5.6-1.1-7.5-2.4l1.3-1.9zM115.4 7.3h2.4l.3 2h.1c.7-1.4 1.6-2.4 3.4-2.4 1.5 0 2.5.9 2.9 2.6.8-1.5 1.9-2.6 3.5-2.6 2.1 0 3.4 1.7 3.4 4.8v10.9h-2.9v-10.6c0-1.6-.4-2.4-1.4-2.4-1 0-1.6.7-2.3 2.1v10.9h-2.4v-10.6c0-1.6-.5-2.4-1.5-2.4-.9 0-1.6.7-2.3 2.1v10.9h-3v-15.3zM14.4 1.5s.4 4.2-2.3 6.5c-1.1-.6-2.5-1-4.1-1-1.5 0-2.9.4-4.2 1.2-2.9-2.3-2.4-6.7-2.4-6.7-3.2 6.2.2 8.7.2 8.7-.9 1.3-1.4 2.9-1.4 4.8 0 5.1 3.7 8 8.3 8 2.4 0 4.4-.8 6-1.8l-1.1-2c-1.4.8-2.8 1.3-4.5 1.3-3.1 0-5.3-1.8-5.5-4.8h11.5c.1-.4.2-1 .2-1.6 0-1.5-.3-2.9-.9-4 .3-.1 3.2-2.6.2-8.6zm-11 12.2c.4-2.7 2.4-4.3 4.7-4.3 2.6 0 4.1 1.5 4.1 4.3h-8.8z"/></g></svg>