<svg fill="#D81D4E" xmlns="http://www.w3.org/2000/svg" viewBox="0 0 512 512" enable-background="new 0 0 512 512"><path d="M55.3 447.7h255.5c10.1 0 18.3-8.2 18.3-18.3v-118.6c0-5-4.1-9.1-9.1-9.1s-9.1 4.1-9.1 9.1v118.6h-255.6v-346.8h255.5v118.6c0 5 4.1 9.1 9.1 9.1s9.1-4.1 9.1-9.1v-118.6c0-10.1-8.2-18.3-18.3-18.3h-255.4c-10.1 0-18.3 8.2-18.3 18.3v346.8c0 10.1 8.2 18.3 18.3 18.3zM386.4 322.6c-1.6 1.6-2.7 3.9-2.7 6.5 0 5 4.1 9.1 9.1 9.1 2.5 0 4.8-1 6.5-2.7l73-73c1.7-1.7 2.7-3.9 2.7-6.5 0-2.5-1-4.8-2.7-6.5l-73-73c-1.6-1.7-3.9-2.7-6.5-2.7-5 0-9.1 4.1-9.1 9.1 0 2.5 1 4.8 2.7 6.5l57.4 57.4h-288.2c-5 0-9.1 4.1-9.1 9.1s4.1 9.1 9.1 9.1h288.3l-57.5 57.6z"/></svg>
