<?xml version="1.0" encoding="utf-8"?>
<!-- Generator: Adobe Illustrator 17.1.0, SVG Export Plug-In . SVG Version: 6.00 Build 0)  -->
<!DOCTYPE svg PUBLIC "-//W3C//DTD SVG 1.1//EN" "http://www.w3.org/Graphics/SVG/1.1/DTD/svg11.dtd">
<svg version="1.1" id="Layer_1" xmlns="http://www.w3.org/2000/svg" xmlns:xlink="http://www.w3.org/1999/xlink" x="0px" y="0px"
	 viewBox="0 0 512 512" enable-background="new 0 0 512 512" xml:space="preserve">
<path fill="#231F20" d="M395.5,441.8c60.4,0,109.5-47,114.3-109.4l0-153.7l0-0.3C505.1,116.7,455.9,70,395.5,70h-174
	c-60.9,0-112.2,48-116.9,109.2l0,153.8l0,0.2c0.7,9.1,2.1,17.2,4.2,24.8c0.3,1,0.2,2.2-0.4,3.1c-13.3,24-38.7,42.2-66.2,47.5
	l-39.7,7.6l37.7,14.7c18.1,7,39,10.9,58.8,10.9c22.3,0,43.9-4.6,64.2-13.7c0.5-0.2,1.1-0.4,1.7-0.4c0.7,0,1.3,0.2,1.9,0.5
	c15.1,7.9,31.8,12.6,48.3,13.5L395.5,441.8z M212.9,418.5l-4.3,0c-8.4,0-15.6-3.7-22.5-7.4c-7.7-4-15-7.8-24.2-7.8l-0.8,0l-0.8,0.4
	c-19.2,9.8-39.8,14.8-61.3,14.8c-0.9,0-1.8,0-2.6,0c-1.8,0-3.3-1.2-3.8-2.9s0.1-3.5,1.5-4.6c16.8-12,30.1-27.8,38.4-45.7l0.4-0.8
	l-0.2-0.5c-3.2-9.2-4.7-17.8-4.7-26.2l0-2.7c-0.2-94-0.2-154,0-160.6c0-0.4,0.1-0.7,0.2-1.1c6.5-21.4,15.4-37.3,27.9-49.8
	c12.5-12.5,29.2-22.2,52.4-30.5c0.4-0.1,0.8-0.2,1.2-0.2c5.3-0.2,40.2-0.4,88.8-0.4c53.5,0,100.2,0.2,106.3,0.4
	c0.4,0,0.8,0.1,1.2,0.2c48.9,17,61.1,32.4,80.2,80.2c0.2,0.4,0.3,0.9,0.3,1.4c0.4,12.1,0.3,151.7,0,162.3c0,0.3-0.1,0.7-0.2,1
	c-11.5,39.5-40.8,68.8-80.4,80.4c-0.3,0.1-0.7,0.2-1,0.2c-2.4,0.1-13.1,0.2-50.6,0.2c-32.8,0-79.8-0.1-139.9-0.2L212.9,418.5z"/>
</svg>
