<svg fill="#929292" xmlns="http://www.w3.org/2000/svg" viewBox="0 0 512 512" enable-background="new 0 0 512 512"><path fill="#231F20" d="M395.5 441.8c60.4 0 109.5-47 114.3-109.4v-154c-4.7-61.7-53.9-108.4-114.3-108.4h-174c-60.9 0-112.2 48-116.9 109.2v154c.7 9.1 2.1 17.2 4.2 24.8.3 1 .2 2.2-.4 3.1-13.3 24-38.7 42.2-66.2 47.5l-39.7 7.6 37.7 14.7c18.1 7 39 10.9 58.8 10.9 22.3 0 43.9-4.6 64.2-13.7.5-.2 1.1-.4 1.7-.4.7 0 1.3.2 1.9.5 15.1 7.9 31.8 12.6 48.3 13.5l180.4.1zm-182.6-23.3h-4.3c-8.4 0-15.6-3.7-22.5-7.4-7.7-4-15-7.8-24.2-7.8h-.8l-.8.4c-19.2 9.8-39.8 14.8-61.3 14.8h-2.6c-1.8 0-3.3-1.2-3.8-2.9s.1-3.5 1.5-4.6c16.8-12 30.1-27.8 38.4-45.7l.4-.8-.2-.5c-3.2-9.2-4.7-17.8-4.7-26.2v-2.7c-.2-94-.2-154 0-160.6 0-.4.1-.7.2-1.1 6.5-21.4 15.4-37.3 27.9-49.8 12.5-12.5 29.2-22.2 52.4-30.5.4-.1.8-.2 1.2-.2 5.3-.2 40.2-.4 88.8-.4 53.5 0 100.2.2 106.3.4.4 0 .8.1 1.2.2 48.9 17 61.1 32.4 80.2 80.2.2.4.3.9.3 1.4.4 12.1.3 151.7 0 162.3 0 .3-.1.7-.2 1-11.5 39.5-40.8 68.8-80.4 80.4-.3.1-.7.2-1 .2-2.4.1-13.1.2-50.6.2-32.8 0-79.8-.1-139.9-.2l-1.5-.1z"/></svg>
