<svg xmlns="http://www.w3.org/2000/svg" viewBox="0 0 512 512" enable-background="new 0 0 512 512"><path d="M412.4 149.9c-.1-1-.6-1.9-1.3-2.6l-77.1-80-.5-.5c-.5-.5-1.1-.9-1.7-1.1-1.2-.6-2.6-1-4-1-4.7 0-8.6 3.9-8.6 8.6 0 .9.1 1.8.4 2.7.2 1 .6 1.8 1.3 2.5l62.3 64.6h-128.5c-41.7 0-80.8 15.5-109.8 43.6-29.4 28.4-45.6 66.9-45.6 108.3 0 41.4 16.3 79.8 45.8 108.3 29.2 28.1 68.2 43.6 110 43.6 41.7 0 80.8-15.7 110.1-44.2 29.6-28.8 45.8-67.4 45.8-108.9 0-4.9-3.9-8.8-8.8-8.8s-8.8 3.9-8.8 8.8c0 36.7-14.4 70.8-40.5 96.3-26 25.3-60.8 39.2-97.9 39.2-37.2 0-71.9-13.7-97.8-38.6-26-25.1-40.4-58.9-40.4-95.4 0-75.3 60.6-134.1 137.9-134.1h129.7l-62.7 65-.7.7c-.6.7-1.1 1.5-1.2 2.4-.3.9-.5 1.9-.5 2.8 0 4.7 3.9 8.6 8.6 8.6 1.4 0 2.7-.3 3.9-.9.7-.2 1.3-.6 1.8-1.2l76.9-79.8.7-.7c.7-.7 1.1-1.6 1.2-2.5.3-.9.4-1.8.4-2.7 0-1.3-.2-2.2-.4-3zm-88 79.9l.3-.4-.3.4c0 .3-.2.6-.2.8.1-.2.2-.4.2-.8zm5.6 5.1c-.2.2-.5.3-.8.4.3-.1.6-.3.8-.4zm77.5-80.6l.1.1-.1-.1zm0-3.7l.1-.1-.1.1z"/></svg>