<svg fill="#939598" xmlns="http://www.w3.org/2000/svg" viewBox="0 0 512 512" enable-background="new 0 0 512 512"><path fill="#808285" d="M256 187.4c-37.9 0-68.6 30.7-68.6 68.6 0 37.9 30.7 68.6 68.6 68.6 37.9 0 68.6-30.7 68.6-68.6 0-37.9-30.7-68.6-68.6-68.6zm0 123.5c-30.3 0-54.9-24.6-54.9-54.9s24.6-54.9 54.9-54.9 54.9 24.6 54.9 54.9-24.6 54.9-54.9 54.9zm187-82v-.1l-49.2-14c-2.8-9.5-6.7-18.5-11.3-27l24.9-44.8-.1-.1c1.4-2.6 1.2-5.9-1-8.1l-29.1-29.1c-2.2-2.2-5.5-2.5-8.1-1l-.1-.1-44.8 24.9c-8.6-4.6-17.6-8.5-27.1-11.3l-14-49.1h-.1c-.8-2.9-3.4-5-6.5-5h-41.1c-3.1 0-5.7 2.1-6.5 5h-.1l-14 49.1c-9 2.7-17.6 6.3-25.7 10.6l-45.5-24.8-.1.1c-2.6-1.4-6-1.1-8.3 1.2l-30 30c-2.3 2.3-2.6 5.6-1.2 8.3l-.1.1 24.8 45.5c-4.1 7.7-7.5 15.8-10.1 24.2l-49.6 14.6v.1c-2.9.8-5 3.5-5 6.7v42.5c0 3.2 2.1 5.8 5 6.7v.1l49.6 14.6c2.6 8.5 6.1 16.5 10.1 24.2l-24.8 45.5.1.1c-1.4 2.6-1.1 6 1.2 8.3l30 30c2.3 2.3 5.6 2.6 8.3 1.2l.1.1 45.4-24.7c7.7 4.1 15.9 7.6 24.4 10.2l14.6 49.4h.1c.8 2.9 3.5 5 6.7 5h42.5c3.2 0 5.8-2.1 6.7-5h.1l14.6-49.5c9-2.8 17.6-6.5 25.7-11l44.7 24.8.1-.1c2.6 1.4 5.9 1.2 8.1-1l29.1-29.1c2.2-2.2 2.5-5.5 1-8.1l.1-.1-24.9-44.8c4.6-8.5 8.5-17.6 11.3-27l49.2-14v-.1c2.9-.8 5-3.4 5-6.5v-41.1c-.1-3.1-2.2-5.6-5.1-6.5zm-8.7 42.5l-51.6 14.8c-3.2 13.7-8.6 26.4-15.8 38l26.1 47-21.8 21.8-47-26.1c-11.3 7-23.7 12.2-37 15.5l-15.3 51.9h-31.8l-15.3-51.9c-12.9-3.2-25-8.3-36.1-15l-47.6 25.9-22.5-22.5 25.9-47.6c-6.7-11.1-11.8-23.2-15-36.1l-51.9-15.3v-31.8l51.9-15.3c3.2-12.9 8.3-25 15-36.1l-25.9-47.5 22.5-22.5 47.6 25.9c11.4-6.9 23.8-12.1 37.1-15.2l14.8-51.6h30.8l14.8 51.6c13.7 3.2 26.4 8.6 38 15.8l47-26.1 21.8 21.8-26.1 47c7.2 11.6 12.5 24.4 15.8 38l51.6 14.8v30.8z"/></svg>
