<svg fill="#4C4C4C" xmlns="http://www.w3.org/2000/svg" viewBox="0 0 512 512" enable-background="new 0 0 512 512"><path d="M442.7 439.9c1.9 0 3.8 1.5 3.8 4.2 0 2.8-1.9 4.2-3.8 4.2s-3.8-1.5-3.8-4.2c0-2.8 1.9-4.2 3.8-4.2zM447.1 412.7h20v34.7h-2.1v-32.7h-17.9v-2zm15.3-11.9c0-1.9 1.3-3 2.9-3 1.6 0 2.9 1.2 2.9 3 0 1.9-1.3 3-2.9 3-1.6.1-2.9-1.1-2.9-3zM494.7 411.9c9.1 0 16.7 6.7 16.7 18.3 0 11.5-7.6 18.1-16.7 18.1s-16.7-6.7-16.7-18.1c0-11.7 7.6-18.3 16.7-18.3zm0 34.4c8.3 0 14.4-6.5 14.4-16.1 0-9.6-6.1-16.3-14.4-16.3s-14.4 6.7-14.4 16.3c0 9.5 6.1 16.1 14.4 16.1zM74.6 421.3l-17.1-23.8h10.9l7.2 10.1c1.7 2.7 3.7 5.7 5.6 8.4h.4l5.3-8.5 6.6-10h10.5l-17.2 24.8 18.4 24.7h-10.9l-7.9-10.5c-1.9-2.8-4.2-6.1-6.3-8.9h-.4c-1.8 2.9-3.7 5.9-5.7 8.9l-7.3 10.5h-10.6l18.5-25.7zM136.3 396.3c14.5 0 22.8 9.6 22.8 23.4 0 2-.3 4-.5 5.2h-37.3c.6 9.7 7.9 15.5 17.8 15.5 5.4 0 9.9-1.6 14.4-4.3l3.5 6.4c-5.2 3.2-11.7 5.8-19.3 5.8-14.9 0-26.9-9.6-26.9-25.9.2-16.3 12.6-26.1 25.5-26.1zm13.5 21.7c0-8.8-4.8-13.8-13.3-13.8-7.4 0-14 5-15.3 13.8h28.6zM170.7 397.5h8.3l.8 11.6h.3c5.1-8 12.8-12.8 21.6-12.8 3.9 0 6.7.6 9.7 2l-2.2 8.6c-3.3-1.1-5.3-1.6-9-1.6-7.1 0-14 3.6-19.5 13.6v28.2h-10v-49.6zM244.6 396.3c8.1 0 14.2 3.1 18.2 7.1l-4.9 6.4c-4-3.2-8-5.2-12.9-5.2-10.6 0-18 7.1-18 17.7s7.2 17.7 17.7 17.7c6 0 10.8-2.6 14.8-5.9l4.3 6.5c-5.6 4.9-12.7 7.6-19.9 7.6-15.5 0-27.3-9.5-27.3-25.9.2-16.5 13-26 28-26zM270.2 397.5h32.2v49.5h-10v-41.4h-22.2v-8.1zm18.9-16.5c0-4.3 3.2-7.2 7.5-7.2s7.5 2.9 7.5 7.2c0 4.4-3.2 7.1-7.5 7.1s-7.5-2.7-7.5-7.1zM318.5 434.1c5.6 4 11.6 6.5 19.8 6.5 8.4 0 12.3-2.9 12.3-6.8 0-3.6-4.4-6.1-15.3-8.8-9.8-2.5-18.5-7-18.5-14.2 0-8.3 7.5-14.5 21.3-14.5 7.8 0 15.3 3.1 20.3 6.5l-4.7 6.3c-4.5-2.9-9.6-5.1-15.5-5.1-8.4 0-11.2 2.7-11.2 6.3 0 3.7 6 6 14.5 8.1 12.4 3.1 19.4 7 19.4 14.8 0 8.3-8.1 15.1-22.7 15.1-9.4 0-18.1-3.5-24.2-7.7l4.5-6.5zM373.3 397.5h7.7l.8 6.5h.3c2.3-4.5 5.3-7.7 10.9-7.7 4.9 0 8 2.8 9.2 8.4 2.6-5 6-8.4 11.4-8.4 6.9 0 10.8 5.6 10.8 15.5v35.3h-9.4v-34.5c0-5.1-1.4-7.6-4.7-7.6-3.1 0-5.3 2.2-7.5 6.8v35.3h-7.9v-34.5c0-5.1-1.6-7.6-4.9-7.6-3 0-5.1 2.2-7.3 6.8v35.3h-9.5v-49.6zM47 378.8s1.3 13.6-7.4 21c-3.5-2.2-7.9-3.5-13.1-3.5-4.8 0-9.5 1.4-13.6 3.9-9.2-7.3-7.9-21.4-7.9-21.4-10.3 20.1.5 28 .8 28.2-2.9 4.1-4.6 9.3-4.6 15.4 0 16.3 12 25.9 26.9 25.9 7.6 0 14.1-2.5 19.3-5.8l-3.5-6.4c-4.5 2.6-9 4.3-14.4 4.3-9.9 0-17.2-5.8-17.8-15.5h37.3c.2-1.2.5-3.1.5-5.2 0-4.9-1.1-9.2-3-12.8.8-.7 10.4-8.8.5-28.1zm-35.6 39.2c1.3-8.8 7.9-13.8 15.3-13.8 8.5 0 13.3 5 13.3 13.8h-28.6z"/></svg>
