<?xml version="1.0" encoding="utf-8"?>
<!-- Generator: Adobe Illustrator 15.1.0, SVG Export Plug-In  -->
<!DOCTYPE svg PUBLIC "-//W3C//DTD SVG 1.1 Basic//EN" "http://www.w3.org/Graphics/SVG/1.1/DTD/svg11-basic.dtd" [
	<!ENTITY ns_flows "http://ns.adobe.com/Flows/1.0/">
]>
<svg version="1.1" baseProfile="basic"
	 xmlns="http://www.w3.org/2000/svg" xmlns:xlink="http://www.w3.org/1999/xlink" xmlns:a="http://ns.adobe.com/AdobeSVGViewerExtensions/3.0/"
	 x="0px" y="0px" width="301px" height="71px" viewBox="0 0 301 71" enable-background="new 0 0 301 71" xml:space="preserve">
<defs>
</defs>
<path fill="#FFFFFF" d="M18.405,13.54h7.475v14.618c1.471-1.269,2.951-2.22,4.44-2.854c1.489-0.635,2.997-0.952,4.523-0.952
	c2.979,0,5.489,1.03,7.53,3.089c1.747,1.784,2.62,4.404,2.62,7.861v19.831h-7.419V41.977c0-3.475-0.166-5.829-0.497-7.061
	c-0.331-1.231-0.896-2.151-1.696-2.758c-0.8-0.607-1.789-0.91-2.965-0.91c-1.526,0-2.836,0.506-3.93,1.517
	c-1.094,1.012-1.853,2.391-2.276,4.137c-0.221,0.901-0.331,2.961-0.331,6.179v12.053h-7.475V13.54z"/>
<path fill="#FFFFFF" d="M132.206,14.064h7.53v11.06h4.468v6.482h-4.468v23.527h-7.53V31.606h-3.861v-6.482h3.861V14.064z"/>
<path fill="#FFFFFF" d="M177.604,31.192l-6.269,3.447c-1.178-1.231-2.343-2.086-3.493-2.565c-1.15-0.478-2.499-0.717-4.045-0.717
	c-2.817,0-5.095,0.84-6.835,2.52s-2.609,3.833-2.609,6.458c0,2.553,0.837,4.637,2.513,6.252c1.675,1.615,3.875,2.423,6.6,2.423
	c3.369,0,5.993-1.148,7.87-3.447l5.938,4.065c-3.218,4.186-7.76,6.277-13.625,6.277c-5.277,0-9.41-1.563-12.398-4.688
	s-4.482-6.785-4.482-10.978c0-2.905,0.727-5.581,2.179-8.026c1.452-2.445,3.479-4.367,6.082-5.765
	c2.602-1.397,5.512-2.096,8.729-2.096c2.979,0,5.654,0.593,8.026,1.779S176.097,29.004,177.604,31.192z"/>
<path fill="#FFFFFF" d="M198.483,24.352c2.832,0,5.493,0.708,7.985,2.124c2.491,1.417,4.436,3.337,5.833,5.765
	s2.097,5.047,2.097,7.861c0,2.832-0.704,5.48-2.11,7.944s-3.323,4.39-5.751,5.778c-2.427,1.388-5.103,2.082-8.026,2.082
	c-4.303,0-7.976-1.53-11.019-4.592s-4.564-6.78-4.564-11.157c0-4.689,1.719-8.596,5.157-11.722
	C191.101,25.713,194.567,24.352,198.483,24.352z M198.607,31.44c-2.339,0-4.287,0.813-5.843,2.441
	c-1.557,1.627-2.335,3.709-2.335,6.247c0,2.612,0.769,4.726,2.307,6.344s3.486,2.427,5.844,2.427s4.319-0.817,5.885-2.454
	s2.349-3.742,2.349-6.317c0-2.574-0.77-4.666-2.308-6.274S201.002,31.44,198.607,31.44z"/>
<path fill="#FFFFFF" d="M242.696,13.54h7.53v41.593h-7.53v-3.172c-1.47,1.397-2.943,2.404-4.422,3.021
	c-1.479,0.615-3.08,0.924-4.807,0.924c-3.875,0-7.228-1.503-10.056-4.51c-2.828-3.006-4.242-6.743-4.242-11.212
	c0-4.634,1.368-8.43,4.104-11.391c2.736-2.96,6.061-4.44,9.973-4.44c1.8,0,3.489,0.34,5.068,1.021c1.58,0.68,3.04,1.701,4.381,3.062
	V13.54z M234.781,31.302c-2.328,0-4.261,0.823-5.801,2.469c-1.539,1.646-2.309,3.756-2.309,6.33c0,2.592,0.783,4.726,2.35,6.399
	c1.567,1.674,3.496,2.51,5.787,2.51c2.364,0,4.325-0.822,5.882-2.469c1.558-1.645,2.337-3.801,2.337-6.468
	c0-2.611-0.779-4.726-2.337-6.344C239.134,32.112,237.163,31.302,234.781,31.302z"/>
<path fill="#FFFFFF" d="M287.903,42.308h-24.189c0.35,2.134,1.282,3.83,2.8,5.089c1.517,1.26,3.452,1.89,5.806,1.89
	c2.813,0,5.231-0.983,7.254-2.951l6.344,2.979c-1.582,2.243-3.476,3.902-5.682,4.979c-2.207,1.075-4.827,1.613-7.86,1.613
	c-4.708,0-8.542-1.484-11.502-4.454c-2.961-2.97-4.44-6.688-4.44-11.157c0-4.579,1.476-8.38,4.427-11.405
	c2.951-3.024,6.651-4.537,11.102-4.537c4.726,0,8.568,1.513,11.529,4.537c2.96,3.025,4.44,7.02,4.44,11.984L287.903,42.308z
	 M280.373,36.377c-0.497-1.673-1.479-3.034-2.942-4.082c-1.465-1.048-3.163-1.572-5.098-1.572c-2.1,0-3.941,0.589-5.525,1.765
	c-0.994,0.736-1.915,2.032-2.763,3.889H280.373z"/>
<polygon fill="#FFFFFF" points="80.894,53.945 62.162,48.816 62.153,28.917 53.909,35.211 53.917,54.973 72.782,60.137 "/>
<polygon fill="#FFFFFF" points="64.141,27.45 82.872,32.584 82.872,52.484 91.119,46.194 91.118,26.432 72.254,21.261 "/>
<polygon fill="#FFFFFF" points="109.848,51.456 91.116,46.328 91.108,26.429 82.864,32.722 82.872,52.484 101.737,57.648 "/>
<polygon fill="#FFFFFF" points="92.867,25.45 111.598,30.584 111.599,50.484 119.845,44.194 119.844,24.432 100.981,19.261 "/>
<rect id="_x3C_Slice_x3E__1_" fill="none" width="301" height="71"/>
</svg>
